STARTFONT 2.1
COMMENT
COMMENT Converted from OpenType font "Retro Gaming.ttf" by "otf2bdf 3.0".
COMMENT
FONT -FreeType-Retro Gaming-Medium-R-Normal--28-200-100-100-P-180-ISO10646-1
SIZE 20 100 100
FONTBOUNDINGBOX 37 37 -1 -8
STARTPROPERTIES 19
FOUNDRY "FreeType"
FAMILY_NAME "Retro Gaming"
WEIGHT_NAME "Medium"
SLANT "R"
SETWIDTH_NAME "Normal"
ADD_STYLE_NAME ""
PIXEL_SIZE 28
POINT_SIZE 200
RESOLUTION_X 100
RESOLUTION_Y 100
SPACING "P"
AVERAGE_WIDTH 180
CHARSET_REGISTRY "ISO10646"
CHARSET_ENCODING "1"
FONT_ASCENT 28
FONT_DESCENT 7
COPYRIGHT "Copyright © 2019 by Vasily Draigo aka Daymarius. All rights reserved."
_OTF_FONTFILE "Retro Gaming.ttf"
_OTF_PSNAME "RetroGaming"
ENDPROPERTIES
CHARS 316
STARTCHAR 0020
ENCODING 32
SWIDTH 360 0
DWIDTH 10 0
BBX 0 0 0 0
BITMAP
ENDCHAR
STARTCHAR 0021
ENCODING 33
SWIDTH 324 0
DWIDTH 9 0
BBX 5 21 3 0
BITMAP
F8
F8
F8
F8
F8
F8
F8
F8
F8
F8
F8
F8
F8
00
00
00
F8
F8
F8
F8
F8
ENDCHAR
STARTCHAR 0022
ENCODING 34
SWIDTH 612 0
DWIDTH 17 0
BBX 13 8 3 13
BITMAP
F8F8
F8F8
F8F8
F8F8
F8F8
F8F8
F8F8
F8F8
ENDCHAR
STARTCHAR 0023
ENCODING 35
SWIDTH 1044 0
DWIDTH 29 0
BBX 25 21 3 0
BITMAP
07C1F000
07C1F000
07C1F000
07C1F000
07C1F000
FFFFFF80
FFFFFF80
FFFFFF80
07C1F000
07C1F000
07C1F000
07C1F000
07C1F000
FFFFFF80
FFFFFF80
FFFFFF80
07C1F000
07C1F000
07C1F000
07C1F000
07C1F000
ENDCHAR
STARTCHAR 0024
ENCODING 36
SWIDTH 792 0
DWIDTH 22 0
BBX 18 31 3 -5
BITMAP
03E000
03E000
03E000
03E000
03E000
3FFE00
3FFE00
3FFE00
F9C7C0
F9C7C0
F9C7C0
F9C000
F9C000
3FFE00
3FFE00
3FFFC0
01C7C0
01C7C0
01C7C0
01C7C0
01C7C0
F9C7C0
F9C7C0
3FFE00
3FFE00
3FFE00
03E000
03E000
03E000
03E000
03E000
ENDCHAR
STARTCHAR 0025
ENCODING 37
SWIDTH 792 0
DWIDTH 22 0
BBX 18 21 3 0
BITMAP
1F07C0
1F07C0
1F07C0
E707C0
E707C0
F83E00
F83E00
F83E00
00F800
00F800
00C000
07C000
07C000
1F07C0
1F07C0
1F07C0
F839C0
F839C0
F83E00
F83E00
F83E00
ENDCHAR
STARTCHAR 0026
ENCODING 38
SWIDTH 864 0
DWIDTH 24 0
BBX 20 21 3 0
BITMAP
3FFE00
3FFE00
3FFE00
F807C0
F807C0
F807C0
F80000
F80000
3FC000
3FC000
3FC000
F81FF0
F81FF0
F81FF0
F81F00
F81F00
F81F00
F81F00
3FF800
3FF800
3FF800
ENDCHAR
STARTCHAR 0027
ENCODING 39
SWIDTH 324 0
DWIDTH 9 0
BBX 5 8 3 13
BITMAP
F8
F8
F8
F8
F8
F8
F8
F8
ENDCHAR
STARTCHAR 0028
ENCODING 40
SWIDTH 504 0
DWIDTH 14 0
BBX 10 21 3 0
BITMAP
07C0
07C0
07C0
1F00
1F00
1F00
F800
F800
F800
F800
F800
F800
F800
F800
F800
F800
1F00
1F00
07C0
07C0
07C0
ENDCHAR
STARTCHAR 0029
ENCODING 41
SWIDTH 504 0
DWIDTH 14 0
BBX 10 21 3 0
BITMAP
F800
F800
F800
1F00
1F00
1F00
07C0
07C0
07C0
07C0
07C0
07C0
07C0
07C0
07C0
07C0
1F00
1F00
F800
F800
F800
ENDCHAR
STARTCHAR 002A
ENCODING 42
SWIDTH 864 0
DWIDTH 24 0
BBX 20 13 3 5
BITMAP
1F8FC0
1F8FC0
03FC00
03FC00
03FC00
FFFFF0
FFFFF0
FFFFF0
03FC00
03FC00
1F8FC0
1F8FC0
1F8FC0
ENDCHAR
STARTCHAR 002B
ENCODING 43
SWIDTH 684 0
DWIDTH 19 0
BBX 15 13 3 4
BITMAP
07C0
07C0
07C0
07C0
07C0
FFFE
FFFE
FFFE
07C0
07C0
07C0
07C0
07C0
ENDCHAR
STARTCHAR 002C
ENCODING 44
SWIDTH 324 0
DWIDTH 9 0
BBX 8 8 0 -3
BITMAP
1F
1F
1F
1F
1F
F8
F8
F8
ENDCHAR
STARTCHAR 002D
ENCODING 45
SWIDTH 504 0
DWIDTH 14 0
BBX 10 3 3 9
BITMAP
FFC0
FFC0
FFC0
ENDCHAR
STARTCHAR 002E
ENCODING 46
SWIDTH 324 0
DWIDTH 9 0
BBX 5 5 3 0
BITMAP
F8
F8
F8
F8
F8
ENDCHAR
STARTCHAR 002F
ENCODING 47
SWIDTH 792 0
DWIDTH 22 0
BBX 18 21 3 0
BITMAP
0007C0
0007C0
0007C0
0007C0
0007C0
003E00
003E00
003E00
00F800
00F800
00C000
07C000
07C000
1F0000
1F0000
1F0000
F80000
F80000
F80000
F80000
F80000
ENDCHAR
STARTCHAR 0030
ENCODING 48
SWIDTH 792 0
DWIDTH 22 0
BBX 18 21 3 0
BITMAP
3FFE00
3FFE00
3FFE00
F807C0
F807C0
F83FC0
F83FC0
F83FC0
F8FFC0
F8FFC0
F8C7C0
FFC7C0
FFC7C0
FF07C0
FF07C0
FF07C0
F807C0
F807C0
3FFE00
3FFE00
3FFE00
ENDCHAR
STARTCHAR 0031
ENCODING 49
SWIDTH 504 0
DWIDTH 14 0
BBX 10 21 3 0
BITMAP
1F00
1F00
1F00
FF00
FF00
FF00
1F00
1F00
1F00
1F00
1F00
1F00
1F00
1F00
1F00
1F00
1F00
1F00
FFC0
FFC0
FFC0
ENDCHAR
STARTCHAR 0032
ENCODING 50
SWIDTH 792 0
DWIDTH 22 0
BBX 18 21 3 0
BITMAP
3FFE00
3FFE00
3FFE00
F807C0
F807C0
F807C0
0007C0
0007C0
3FFE00
3FFE00
3FFE00
F80000
F80000
F80000
F80000
F80000
F807C0
F807C0
FFFFC0
FFFFC0
FFFFC0
ENDCHAR
STARTCHAR 0033
ENCODING 51
SWIDTH 792 0
DWIDTH 22 0
BBX 18 21 3 0
BITMAP
FFFFC0
FFFFC0
FFFFC0
003E00
003E00
00F800
00F800
00F800
07FE00
07FE00
07FFC0
0007C0
0007C0
0007C0
0007C0
0007C0
F807C0
F807C0
3FFE00
3FFE00
3FFE00
ENDCHAR
STARTCHAR 0034
ENCODING 52
SWIDTH 792 0
DWIDTH 22 0
BBX 18 21 3 0
BITMAP
00FFC0
00FFC0
00FFC0
07C7C0
07C7C0
0707C0
1F07C0
1F07C0
F807C0
F807C0
FFFFC0
FFFFC0
FFFFC0
0007C0
0007C0
0007C0
0007C0
0007C0
0007C0
0007C0
0007C0
ENDCHAR
STARTCHAR 0035
ENCODING 53
SWIDTH 792 0
DWIDTH 22 0
BBX 18 21 3 0
BITMAP
FFFE00
FFFE00
FFFE00
F80000
F80000
F80000
F80000
F80000
FFFE00
FFFE00
FFFFC0
0007C0
0007C0
0007C0
0007C0
0007C0
F807C0
F807C0
3FFE00
3FFE00
3FFE00
ENDCHAR
STARTCHAR 0036
ENCODING 54
SWIDTH 792 0
DWIDTH 22 0
BBX 18 21 3 0
BITMAP
3FFE00
3FFE00
3FFE00
F807C0
F807C0
F807C0
F80000
F80000
FFFE00
FFFE00
FFFE00
F807C0
F807C0
F807C0
F807C0
F807C0
F807C0
F807C0
3FFE00
3FFE00
3FFE00
ENDCHAR
STARTCHAR 0037
ENCODING 55
SWIDTH 792 0
DWIDTH 22 0
BBX 18 21 3 0
BITMAP
FFFFC0
FFFFC0
FFFFC0
F807C0
F807C0
003E00
003E00
003E00
00F800
00F800
00C000
07C000
07C000
07C000
07C000
07C000
07C000
07C000
07C000
07C000
07C000
ENDCHAR
STARTCHAR 0038
ENCODING 56
SWIDTH 792 0
DWIDTH 22 0
BBX 18 21 3 0
BITMAP
3FFE00
3FFE00
3FFE00
F807C0
F807C0
F807C0
F807C0
F807C0
3FFE00
3FFE00
3FFE00
F807C0
F807C0
F807C0
F807C0
F807C0
F807C0
F807C0
3FFE00
3FFE00
3FFE00
ENDCHAR
STARTCHAR 0039
ENCODING 57
SWIDTH 792 0
DWIDTH 22 0
BBX 18 21 3 0
BITMAP
3FFE00
3FFE00
3FFE00
F807C0
F807C0
F807C0
F807C0
F807C0
F807C0
F807C0
3FFFC0
3FFFC0
3FFFC0
0007C0
0007C0
0007C0
F807C0
F807C0
3FFE00
3FFE00
3FFE00
ENDCHAR
STARTCHAR 003A
ENCODING 58
SWIDTH 324 0
DWIDTH 9 0
BBX 5 16 3 0
BITMAP
F8
F8
F8
F8
F8
00
00
00
00
00
00
F8
F8
F8
F8
F8
ENDCHAR
STARTCHAR 003B
ENCODING 59
SWIDTH 324 0
DWIDTH 9 0
BBX 8 19 0 -3
BITMAP
1F
1F
1F
1F
1F
00
00
00
00
00
00
1F
1F
1F
1F
1F
F8
F8
F8
ENDCHAR
STARTCHAR 003C
ENCODING 60
SWIDTH 612 0
DWIDTH 17 0
BBX 13 18 3 0
BITMAP
00F8
00F8
07C0
07C0
07C0
1F00
1F00
F800
F800
F800
1F00
1F00
1F00
07C0
07C0
00F8
00F8
00F8
ENDCHAR
STARTCHAR 003D
ENCODING 61
SWIDTH 612 0
DWIDTH 17 0
BBX 13 8 3 5
BITMAP
FFF8
FFF8
FFF8
0000
0000
FFF8
FFF8
FFF8
ENDCHAR
STARTCHAR 003E
ENCODING 62
SWIDTH 612 0
DWIDTH 17 0
BBX 13 18 3 0
BITMAP
F800
F800
1F00
1F00
1F00
07C0
07C0
00F8
00F8
00F8
07C0
07C0
07C0
1F00
1F00
F800
F800
F800
ENDCHAR
STARTCHAR 003F
ENCODING 63
SWIDTH 792 0
DWIDTH 22 0
BBX 18 21 3 0
BITMAP
3FFE00
3FFE00
3FFE00
F807C0
F807C0
F807C0
0007C0
0007C0
01FE00
01FE00
07FE00
07C000
07C000
000000
000000
000000
07C000
07C000
07C000
07C000
07C000
ENDCHAR
STARTCHAR 0040
ENCODING 64
SWIDTH 792 0
DWIDTH 22 0
BBX 18 21 3 0
BITMAP
1FFE00
1FFE00
1FFE00
E001C0
E001C0
E7F9C0
E7F9C0
E7F9C0
E739C0
E739C0
E739C0
E739C0
E739C0
E7FFC0
E7FFC0
E7FFC0
E00000
E00000
1FFE00
1FFE00
1FFE00
ENDCHAR
STARTCHAR 0041
ENCODING 65
SWIDTH 792 0
DWIDTH 22 0
BBX 18 21 3 0
BITMAP
07F800
07F800
07F800
1F3E00
1F3E00
F807C0
F807C0
F807C0
F807C0
F807C0
FFFFC0
FFFFC0
FFFFC0
F807C0
F807C0
F807C0
F807C0
F807C0
F807C0
F807C0
F807C0
ENDCHAR
STARTCHAR 0042
ENCODING 66
SWIDTH 792 0
DWIDTH 22 0
BBX 18 21 3 0
BITMAP
FFFE00
FFFE00
FFFE00
F807C0
F807C0
F807C0
F807C0
F807C0
FFFE00
FFFE00
FFFE00
F807C0
F807C0
F807C0
F807C0
F807C0
F807C0
F807C0
FFFE00
FFFE00
FFFE00
ENDCHAR
STARTCHAR 0043
ENCODING 67
SWIDTH 792 0
DWIDTH 22 0
BBX 18 21 3 0
BITMAP
07FE00
07FE00
07FE00
1F07C0
1F07C0
1F07C0
F80000
F80000
F80000
F80000
F80000
F80000
F80000
F80000
F80000
F80000
1F07C0
1F07C0
07FE00
07FE00
07FE00
ENDCHAR
STARTCHAR 0044
ENCODING 68
SWIDTH 792 0
DWIDTH 22 0
BBX 18 21 3 0
BITMAP
FFF800
FFF800
FFF800
F83E00
F83E00
F83E00
F807C0
F807C0
F807C0
F807C0
F807C0
F807C0
F807C0
F807C0
F807C0
F807C0
F83E00
F83E00
FFF800
FFF800
FFF800
ENDCHAR
STARTCHAR 0045
ENCODING 69
SWIDTH 792 0
DWIDTH 22 0
BBX 18 21 3 0
BITMAP
FFFFC0
FFFFC0
FFFFC0
F80000
F80000
F80000
F80000
F80000
FFF800
FFF800
FFF800
F80000
F80000
F80000
F80000
F80000
F80000
F80000
FFFFC0
FFFFC0
FFFFC0
ENDCHAR
STARTCHAR 0046
ENCODING 70
SWIDTH 792 0
DWIDTH 22 0
BBX 18 21 3 0
BITMAP
FFFFC0
FFFFC0
FFFFC0
F80000
F80000
F80000
F80000
F80000
FFF800
FFF800
FFF800
F80000
F80000
F80000
F80000
F80000
F80000
F80000
F80000
F80000
F80000
ENDCHAR
STARTCHAR 0047
ENCODING 71
SWIDTH 792 0
DWIDTH 22 0
BBX 18 21 3 0
BITMAP
07FE00
07FE00
07FE00
1F07C0
1F07C0
1F07C0
F80000
F80000
F80000
F8FFC0
F8FFC0
F8FFC0
F807C0
F807C0
F807C0
F807C0
1F07C0
1F07C0
07FFC0
07FFC0
07FFC0
ENDCHAR
STARTCHAR 0048
ENCODING 72
SWIDTH 792 0
DWIDTH 22 0
BBX 18 21 3 0
BITMAP
F807C0
F807C0
F807C0
F807C0
F807C0
F807C0
F807C0
F807C0
FFFFC0
FFFFC0
FFFFC0
F807C0
F807C0
F807C0
F807C0
F807C0
F807C0
F807C0
F807C0
F807C0
F807C0
ENDCHAR
STARTCHAR 0049
ENCODING 73
SWIDTH 684 0
DWIDTH 19 0
BBX 15 21 3 0
BITMAP
FFFE
FFFE
FFFE
07C0
07C0
07C0
07C0
07C0
07C0
07C0
07C0
07C0
07C0
07C0
07C0
07C0
07C0
07C0
FFFE
FFFE
FFFE
ENDCHAR
STARTCHAR 004A
ENCODING 74
SWIDTH 792 0
DWIDTH 22 0
BBX 18 21 3 0
BITMAP
07FFC0
07FFC0
07FFC0
0007C0
0007C0
0007C0
0007C0
0007C0
0007C0
0007C0
0007C0
0007C0
0007C0
F807C0
F807C0
F807C0
F807C0
F807C0
3FFE00
3FFE00
3FFE00
ENDCHAR
STARTCHAR 004B
ENCODING 75
SWIDTH 792 0
DWIDTH 22 0
BBX 18 21 3 0
BITMAP
F807C0
F807C0
F807C0
F83E00
F83E00
F8F800
F8F800
F8F800
FFC000
FFC000
FFC000
F8F800
F8F800
F83E00
F83E00
F83E00
F807C0
F807C0
F807C0
F807C0
F807C0
ENDCHAR
STARTCHAR 004C
ENCODING 76
SWIDTH 684 0
DWIDTH 19 0
BBX 15 21 3 0
BITMAP
F800
F800
F800
F800
F800
F800
F800
F800
F800
F800
F800
F800
F800
F800
F800
F800
F800
F800
FFFE
FFFE
FFFE
ENDCHAR
STARTCHAR 004D
ENCODING 77
SWIDTH 792 0
DWIDTH 22 0
BBX 18 21 3 0
BITMAP
E001C0
E001C0
E001C0
F80FC0
F80FC0
FE3FC0
FE3FC0
FE3FC0
FFFFC0
FFFFC0
F9CFC0
F9CFC0
F9CFC0
F80FC0
F80FC0
F80FC0
F80FC0
F80FC0
F80FC0
F80FC0
F80FC0
ENDCHAR
STARTCHAR 004E
ENCODING 78
SWIDTH 792 0
DWIDTH 22 0
BBX 18 21 3 0
BITMAP
E007C0
E007C0
E007C0
F807C0
F807C0
FF07C0
FF07C0
FF07C0
FFC7C0
FFC7C0
F8C7C0
F8FFC0
F8FFC0
F83FC0
F83FC0
F83FC0
F807C0
F807C0
F801C0
F801C0
F801C0
ENDCHAR
STARTCHAR 004F
ENCODING 79
SWIDTH 792 0
DWIDTH 22 0
BBX 18 21 3 0
BITMAP
3FFE00
3FFE00
3FFE00
F807C0
F807C0
F807C0
F807C0
F807C0
F807C0
F807C0
F807C0
F807C0
F807C0
F807C0
F807C0
F807C0
F807C0
F807C0
3FFE00
3FFE00
3FFE00
ENDCHAR
STARTCHAR 0050
ENCODING 80
SWIDTH 792 0
DWIDTH 22 0
BBX 18 21 3 0
BITMAP
FFFE00
FFFE00
FFFE00
F807C0
F807C0
F807C0
F807C0
F807C0
FFFE00
FFFE00
FFFE00
F80000
F80000
F80000
F80000
F80000
F80000
F80000
F80000
F80000
F80000
ENDCHAR
STARTCHAR 0051
ENCODING 81
SWIDTH 792 0
DWIDTH 22 0
BBX 18 21 3 0
BITMAP
1FFE00
1FFE00
1FFE00
F807C0
F807C0
F807C0
F807C0
F807C0
F807C0
F807C0
F807C0
F807C0
F807C0
F8FFC0
F8FFC0
F8FFC0
F83E00
F83E00
1FF9C0
1FF9C0
1FF9C0
ENDCHAR
STARTCHAR 0052
ENCODING 82
SWIDTH 792 0
DWIDTH 22 0
BBX 18 21 3 0
BITMAP
FFFE00
FFFE00
FFFE00
F807C0
F807C0
F807C0
F807C0
F807C0
FFFE00
FFFE00
FFFE00
F807C0
F807C0
F807C0
F807C0
F807C0
F807C0
F807C0
F807C0
F807C0
F807C0
ENDCHAR
STARTCHAR 0053
ENCODING 83
SWIDTH 792 0
DWIDTH 22 0
BBX 18 21 3 0
BITMAP
3FFE00
3FFE00
3FFE00
F807C0
F807C0
F807C0
F80000
F80000
3FFE00
3FFE00
3FFFC0
0007C0
0007C0
0007C0
0007C0
0007C0
F807C0
F807C0
3FFE00
3FFE00
3FFE00
ENDCHAR
STARTCHAR 0054
ENCODING 84
SWIDTH 792 0
DWIDTH 22 0
BBX 18 21 3 0
BITMAP
FFFFC0
FFFFC0
FFFFC0
03E000
03E000
03E000
03E000
03E000
03E000
03E000
03E000
03E000
03E000
03E000
03E000
03E000
03E000
03E000
03E000
03E000
03E000
ENDCHAR
STARTCHAR 0055
ENCODING 85
SWIDTH 792 0
DWIDTH 22 0
BBX 18 21 3 0
BITMAP
F807C0
F807C0
F807C0
F807C0
F807C0
F807C0
F807C0
F807C0
F807C0
F807C0
F807C0
F807C0
F807C0
F807C0
F807C0
F807C0
F807C0
F807C0
3FFE00
3FFE00
3FFE00
ENDCHAR
STARTCHAR 0056
ENCODING 86
SWIDTH 792 0
DWIDTH 22 0
BBX 18 21 3 0
BITMAP
F807C0
F807C0
F807C0
F807C0
F807C0
F807C0
F807C0
F807C0
F807C0
F807C0
F807C0
F807C0
F807C0
1F3E00
1F3E00
1F3E00
07F800
07F800
00C000
00C000
00C000
ENDCHAR
STARTCHAR 0057
ENCODING 87
SWIDTH 864 0
DWIDTH 24 0
BBX 20 21 3 0
BITMAP
F871F0
F871F0
F871F0
F871F0
F871F0
F871F0
F871F0
F871F0
F871F0
F871F0
F871F0
F871F0
F871F0
FFFFF0
FFFFF0
FFFFF0
FF07F0
FF07F0
3801C0
3801C0
3801C0
ENDCHAR
STARTCHAR 0058
ENCODING 88
SWIDTH 792 0
DWIDTH 22 0
BBX 18 21 3 0
BITMAP
F807C0
F807C0
F807C0
F807C0
F807C0
1F3E00
1F3E00
1F3E00
07F800
07F800
07F800
1F3E00
1F3E00
F807C0
F807C0
F807C0
F807C0
F807C0
F807C0
F807C0
F807C0
ENDCHAR
STARTCHAR 0059
ENCODING 89
SWIDTH 792 0
DWIDTH 22 0
BBX 18 21 3 0
BITMAP
F807C0
F807C0
F807C0
F807C0
F807C0
F807C0
F807C0
F807C0
1F3E00
1F3E00
1F3E00
07F800
07F800
03E000
03E000
03E000
03E000
03E000
03E000
03E000
03E000
ENDCHAR
STARTCHAR 005A
ENCODING 90
SWIDTH 792 0
DWIDTH 22 0
BBX 18 21 3 0
BITMAP
FFFFC0
FFFFC0
FFFFC0
0007C0
0007C0
003E00
003E00
003E00
00F800
00F800
00C000
07C000
07C000
1F0000
1F0000
1F0000
F80000
F80000
FFFFC0
FFFFC0
FFFFC0
ENDCHAR
STARTCHAR 005B
ENCODING 91
SWIDTH 504 0
DWIDTH 14 0
BBX 10 21 3 0
BITMAP
FFC0
FFC0
FFC0
F800
F800
F800
F800
F800
F800
F800
F800
F800
F800
F800
F800
F800
F800
F800
FFC0
FFC0
FFC0
ENDCHAR
STARTCHAR 005C
ENCODING 92
SWIDTH 792 0
DWIDTH 22 0
BBX 18 21 3 0
BITMAP
F80000
F80000
F80000
F80000
F80000
1F0000
1F0000
1F0000
07C000
07C000
00C000
00F800
00F800
003E00
003E00
003E00
0007C0
0007C0
0007C0
0007C0
0007C0
ENDCHAR
STARTCHAR 005D
ENCODING 93
SWIDTH 504 0
DWIDTH 14 0
BBX 10 21 3 0
BITMAP
FFC0
FFC0
FFC0
07C0
07C0
07C0
07C0
07C0
07C0
07C0
07C0
07C0
07C0
07C0
07C0
07C0
07C0
07C0
FFC0
FFC0
FFC0
ENDCHAR
STARTCHAR 005E
ENCODING 94
SWIDTH 792 0
DWIDTH 22 0
BBX 18 8 3 13
BITMAP
07F800
07F800
07F800
1F3E00
1F3E00
F807C0
F807C0
F807C0
ENDCHAR
STARTCHAR 005F
ENCODING 95
SWIDTH 612 0
DWIDTH 17 0
BBX 13 3 3 0
BITMAP
FFF8
FFF8
FFF8
ENDCHAR
STARTCHAR 0060
ENCODING 96
SWIDTH 504 0
DWIDTH 14 0
BBX 10 8 3 13
BITMAP
F800
F800
F800
1F00
1F00
07C0
07C0
07C0
ENDCHAR
STARTCHAR 0061
ENCODING 97
SWIDTH 792 0
DWIDTH 22 0
BBX 18 13 3 0
BITMAP
3FFE00
3FFE00
3FFE00
0007C0
0007C0
3FFFC0
3FFFC0
3FFFC0
F807C0
F807C0
3FFFC0
3FFFC0
3FFFC0
ENDCHAR
STARTCHAR 0062
ENCODING 98
SWIDTH 792 0
DWIDTH 22 0
BBX 18 21 3 0
BITMAP
F80000
F80000
F80000
F80000
F80000
F80000
F80000
F80000
FFFE00
FFFE00
FFFE00
F807C0
F807C0
F807C0
F807C0
F807C0
F807C0
F807C0
FFFE00
FFFE00
FFFE00
ENDCHAR
STARTCHAR 0063
ENCODING 99
SWIDTH 792 0
DWIDTH 22 0
BBX 18 13 3 0
BITMAP
3FFE00
3FFE00
FFFFC0
F807C0
F807C0
F80000
F80000
F80000
F807C0
F807C0
3FFE00
3FFE00
3FFE00
ENDCHAR
STARTCHAR 0064
ENCODING 100
SWIDTH 792 0
DWIDTH 22 0
BBX 18 21 3 0
BITMAP
0007C0
0007C0
0007C0
0007C0
0007C0
0007C0
0007C0
0007C0
1FFFC0
1FFFC0
1FFFC0
F807C0
F807C0
F807C0
F807C0
F807C0
F807C0
F807C0
1FFFC0
1FFFC0
1FFFC0
ENDCHAR
STARTCHAR 0065
ENCODING 101
SWIDTH 792 0
DWIDTH 22 0
BBX 18 13 3 0
BITMAP
3FFE00
3FFE00
3FFE00
F807C0
F807C0
FFFFC0
FFFFC0
FFFFC0
F80000
F80000
3FFE00
3FFE00
3FFE00
ENDCHAR
STARTCHAR 0066
ENCODING 102
SWIDTH 612 0
DWIDTH 17 0
BBX 13 21 3 0
BITMAP
07F8
07F8
07F8
1F00
1F00
1F00
1F00
1F00
FFF8
FFF8
FFF8
1F00
1F00
1F00
1F00
1F00
1F00
1F00
1F00
1F00
1F00
ENDCHAR
STARTCHAR 0067
ENCODING 103
SWIDTH 792 0
DWIDTH 22 0
BBX 18 21 3 -8
BITMAP
3FFFC0
3FFFC0
3FFFC0
F807C0
F807C0
F807C0
F807C0
F807C0
F807C0
F807C0
3FFFC0
3FFFC0
3FFFC0
0007C0
0007C0
0007C0
0007C0
0007C0
3FFE00
3FFE00
3FFE00
ENDCHAR
STARTCHAR 0068
ENCODING 104
SWIDTH 792 0
DWIDTH 22 0
BBX 18 21 3 0
BITMAP
F80000
F80000
F80000
F80000
F80000
F80000
F80000
F80000
FFFE00
FFFE00
FFFE00
F807C0
F807C0
F807C0
F807C0
F807C0
F807C0
F807C0
F807C0
F807C0
F807C0
ENDCHAR
STARTCHAR 0069
ENCODING 105
SWIDTH 324 0
DWIDTH 9 0
BBX 5 21 3 0
BITMAP
F8
F8
F8
F8
F8
00
00
00
F8
F8
F8
F8
F8
F8
F8
F8
F8
F8
F8
F8
F8
ENDCHAR
STARTCHAR 006A
ENCODING 106
SWIDTH 612 0
DWIDTH 17 0
BBX 13 24 3 -3
BITMAP
00F8
00F8
00F8
00F8
00F8
0000
0000
0000
00F8
00F8
00F8
00F8
00F8
00F8
00F8
00F8
00F8
00F8
F8F8
F8F8
F8F8
3FC0
3FC0
3FC0
ENDCHAR
STARTCHAR 006B
ENCODING 107
SWIDTH 684 0
DWIDTH 19 0
BBX 15 21 3 0
BITMAP
F800
F800
F800
F800
F800
F800
F800
F800
F83E
F83E
F83E
F8F8
F8F8
FFC0
FFC0
FFC0
F8F8
F8F8
F83E
F83E
F83E
ENDCHAR
STARTCHAR 006C
ENCODING 108
SWIDTH 432 0
DWIDTH 12 0
BBX 8 21 3 0
BITMAP
F8
F8
F8
F8
F8
F8
F8
F8
F8
F8
F8
F8
F8
F8
F8
F8
F8
F8
1F
1F
1F
ENDCHAR
STARTCHAR 006D
ENCODING 109
SWIDTH 792 0
DWIDTH 22 0
BBX 18 13 3 0
BITMAP
FFFE00
FFFE00
FFFE00
F9C7C0
F9C7C0
F9C7C0
F9C7C0
F9C7C0
F9C7C0
F9C7C0
F9C7C0
F9C7C0
F9C7C0
ENDCHAR
STARTCHAR 006E
ENCODING 110
SWIDTH 792 0
DWIDTH 22 0
BBX 18 13 3 0
BITMAP
FFFE00
FFFE00
FFFE00
F807C0
F807C0
F807C0
F807C0
F807C0
F807C0
F807C0
F807C0
F807C0
F807C0
ENDCHAR
STARTCHAR 006F
ENCODING 111
SWIDTH 792 0
DWIDTH 22 0
BBX 18 13 3 0
BITMAP
3FFE00
3FFE00
3FFE00
F807C0
F807C0
F807C0
F807C0
F807C0
F807C0
F807C0
3FFE00
3FFE00
3FFE00
ENDCHAR
STARTCHAR 0070
ENCODING 112
SWIDTH 792 0
DWIDTH 22 0
BBX 18 21 3 -8
BITMAP
FFFE00
FFFE00
FFFE00
F807C0
F807C0
F807C0
F807C0
F807C0
F807C0
F807C0
FFFE00
FFFE00
FFFE00
F80000
F80000
F80000
F80000
F80000
F80000
F80000
F80000
ENDCHAR
STARTCHAR 0071
ENCODING 113
SWIDTH 792 0
DWIDTH 22 0
BBX 18 21 3 -8
BITMAP
1FFFC0
1FFFC0
1FFFC0
F807C0
F807C0
F807C0
F807C0
F807C0
F807C0
F807C0
1FFFC0
1FFFC0
1FFFC0
0007C0
0007C0
0007C0
0007C0
0007C0
0007C0
0007C0
0007C0
ENDCHAR
STARTCHAR 0072
ENCODING 114
SWIDTH 684 0
DWIDTH 19 0
BBX 15 13 3 0
BITMAP
F9FE
F9FE
FFFE
FE00
FE00
F800
F800
F800
F800
F800
F800
F800
F800
ENDCHAR
STARTCHAR 0073
ENCODING 115
SWIDTH 792 0
DWIDTH 22 0
BBX 18 13 3 0
BITMAP
3FFE00
3FFE00
FFFE00
F80000
F80000
3FFE00
3FFE00
3FFE00
0007C0
0007C0
FFFE00
FFFE00
FFFE00
ENDCHAR
STARTCHAR 0074
ENCODING 116
SWIDTH 612 0
DWIDTH 17 0
BBX 13 21 3 0
BITMAP
1F00
1F00
1F00
1F00
1F00
1F00
1F00
1F00
FFF8
FFF8
FFF8
1F00
1F00
1F00
1F00
1F00
1F00
1F00
07F8
07F8
07F8
ENDCHAR
STARTCHAR 0075
ENCODING 117
SWIDTH 792 0
DWIDTH 22 0
BBX 18 13 3 0
BITMAP
F807C0
F807C0
F807C0
F807C0
F807C0
F807C0
F807C0
F807C0
F807C0
F807C0
3FFE00
3FFE00
3FFE00
ENDCHAR
STARTCHAR 0076
ENCODING 118
SWIDTH 792 0
DWIDTH 22 0
BBX 18 13 3 0
BITMAP
F807C0
F807C0
F807C0
F807C0
F807C0
F807C0
F807C0
F807C0
1F3E00
1F3E00
07F800
07F800
07F800
ENDCHAR
STARTCHAR 0077
ENCODING 119
SWIDTH 792 0
DWIDTH 22 0
BBX 18 13 3 0
BITMAP
F8C7C0
F8C7C0
F8C7C0
F8C7C0
F8C7C0
F8C7C0
F8C7C0
F8C7C0
F8C7C0
F8C7C0
1F3E00
1F3E00
1F3E00
ENDCHAR
STARTCHAR 0078
ENCODING 120
SWIDTH 792 0
DWIDTH 22 0
BBX 18 13 3 0
BITMAP
F807C0
F807C0
F807C0
1F3E00
1FFE00
07F800
07F800
07F800
1FFE00
1F3E00
F807C0
F807C0
F807C0
ENDCHAR
STARTCHAR 0079
ENCODING 121
SWIDTH 792 0
DWIDTH 22 0
BBX 18 21 3 -8
BITMAP
F807C0
F807C0
F807C0
F807C0
F807C0
F807C0
F807C0
F807C0
F807C0
F807C0
3FFFC0
3FFFC0
3FFFC0
0007C0
0007C0
0007C0
0007C0
0007C0
3FFE00
3FFE00
3FFE00
ENDCHAR
STARTCHAR 007A
ENCODING 122
SWIDTH 792 0
DWIDTH 22 0
BBX 18 13 3 0
BITMAP
FFFFC0
FFFFC0
FFFFC0
01FE00
01FE00
07F800
07F800
07F800
3FC000
3FC000
FFFFC0
FFFFC0
FFFFC0
ENDCHAR
STARTCHAR 007B
ENCODING 123
SWIDTH 504 0
DWIDTH 14 0
BBX 10 21 3 0
BITMAP
07C0
07C0
07C0
1F00
1F00
1F00
1F00
1F00
1F00
F800
F800
F800
1F00
1F00
1F00
1F00
1F00
1F00
07C0
07C0
07C0
ENDCHAR
STARTCHAR 007C
ENCODING 124
SWIDTH 324 0
DWIDTH 9 0
BBX 5 26 3 -5
BITMAP
F8
F8
F8
F8
F8
F8
F8
F8
F8
F8
F8
F8
F8
F8
F8
F8
F8
F8
F8
F8
F8
F8
F8
F8
F8
F8
ENDCHAR
STARTCHAR 007D
ENCODING 125
SWIDTH 504 0
DWIDTH 14 0
BBX 10 21 3 0
BITMAP
F800
F800
F800
1F00
1F00
1F00
1F00
1F00
1F00
07C0
07C0
07C0
1F00
1F00
1F00
1F00
1F00
1F00
F800
F800
F800
ENDCHAR
STARTCHAR 007E
ENCODING 126
SWIDTH 684 0
DWIDTH 19 0
BBX 15 8 3 8
BITMAP
1F00
1F00
1F00
E7C6
E7C6
00F8
00F8
00F8
ENDCHAR
STARTCHAR 00A1
ENCODING 161
SWIDTH 324 0
DWIDTH 9 0
BBX 5 21 3 0
BITMAP
F8
F8
F8
F8
F8
00
00
00
F8
F8
F8
F8
F8
F8
F8
F8
F8
F8
F8
F8
F8
ENDCHAR
STARTCHAR 00A2
ENCODING 162
SWIDTH 792 0
DWIDTH 22 0
BBX 18 18 3 -2
BITMAP
01C000
01C000
01C000
3FFE00
3FFE00
FFFFC0
F9C7C0
F9C7C0
F9C000
F9C000
F9C000
F9C7C0
F9C7C0
3FFE00
3FFE00
3FFE00
01C000
01C000
ENDCHAR
STARTCHAR 00A3
ENCODING 163
SWIDTH 792 0
DWIDTH 22 0
BBX 18 21 3 0
BITMAP
07FE00
07FE00
07FE00
1F07C0
1F07C0
1F07C0
1F0000
1F0000
FFFE00
FFFE00
FFFE00
1F0000
1F0000
1F0000
1F0000
1F0000
1F0000
1F0000
FFFFC0
FFFFC0
FFFFC0
ENDCHAR
STARTCHAR 00A4
ENCODING 164
SWIDTH 756 0
DWIDTH 21 0
BBX 17 13 3 4
BITMAP
E7E380
E7E380
E7E380
181C00
181C00
181C00
181C00
181C00
181C00
181C00
E7E380
E7E380
E7E380
ENDCHAR
STARTCHAR 00A5
ENCODING 165
SWIDTH 792 0
DWIDTH 22 0
BBX 18 21 3 0
BITMAP
F807C0
F807C0
F807C0
F807C0
F807C0
F807C0
F807C0
F807C0
1F3E00
1F3E00
1F3E00
07F800
FFFFC0
FFFFC0
FFFFC0
03E000
FFFFC0
FFFFC0
FFFFC0
03E000
03E000
ENDCHAR
STARTCHAR 00A6
ENCODING 166
SWIDTH 288 0
DWIDTH 8 0
BBX 4 34 3 -8
BITMAP
F0
F0
F0
F0
F0
F0
F0
F0
F0
F0
F0
F0
F0
F0
00
00
00
00
00
00
F0
F0
F0
F0
F0
F0
F0
F0
F0
F0
F0
F0
F0
F0
ENDCHAR
STARTCHAR 00A7
ENCODING 167
SWIDTH 756 0
DWIDTH 21 0
BBX 17 21 3 0
BITMAP
3FFE00
3FFE00
3FFE00
F80F80
F80F80
F80F80
F80000
FFF000
FFF000
380E00
380E00
380E00
07FE00
07FF80
07FF80
000F80
F80F80
F80F80
3FFE00
3FFE00
3FFE00
ENDCHAR
STARTCHAR 00A8
ENCODING 168
SWIDTH 612 0
DWIDTH 17 0
BBX 13 5 3 16
BITMAP
F8F8
F8F8
F8F8
F8F8
F8F8
ENDCHAR
STARTCHAR 00A9
ENCODING 169
SWIDTH 972 0
DWIDTH 27 0
BBX 23 21 3 0
BITMAP
3FFFF0
3FFFF0
3FFFF0
F8003E
F8003E
F87FBE
F87FBE
F87FBE
FBE03E
FBE03E
FBE03E
FBE03E
FBE03E
F87FBE
F87FBE
F87FBE
F8003E
F8003E
3FFFF0
3FFFF0
3FFFF0
ENDCHAR
STARTCHAR 00AA
ENCODING 170
SWIDTH 504 0
DWIDTH 14 0
BBX 10 14 3 6
BITMAP
1F00
1F00
00C0
00C0
00C0
1FC0
1FC0
1FC0
E0C0
E0C0
E0C0
1FC0
1FC0
1FC0
ENDCHAR
STARTCHAR 00AB
ENCODING 171
SWIDTH 972 0
DWIDTH 27 0
BBX 23 18 3 0
BITMAP
00F83E
00F83E
07C1F0
07C1F0
07C1F0
1F07C0
1F07C0
F83E00
F83E00
F83E00
1F07C0
1F07C0
1F07C0
07C1F0
07C1F0
00F83E
00F83E
00F83E
ENDCHAR
STARTCHAR 00AE
ENCODING 174
SWIDTH 684 0
DWIDTH 19 0
BBX 15 16 3 5
BITMAP
1FF8
1FF8
1FF8
E006
EFE6
EFE6
EFE6
EEE6
EFE6
EFC6
EFC6
EFE6
E006
1FF8
1FF8
1FF8
ENDCHAR
STARTCHAR 00B1
ENCODING 177
SWIDTH 684 0
DWIDTH 19 0
BBX 15 18 3 1
BITMAP
07C0
07C0
07C0
07C0
07C0
FFFE
FFFE
FFFE
07C0
07C0
07C0
07C0
07C0
0000
0000
FFFE
FFFE
FFFE
ENDCHAR
STARTCHAR 00B5
ENCODING 181
SWIDTH 756 0
DWIDTH 21 0
BBX 19 21 1 -8
BITMAP
F801E0
F801E0
F801E0
F801E0
F801E0
F801E0
F801E0
F801E0
FF0FE0
FF0FE0
F8F9E0
F8F9E0
F8F9E0
F80000
F80000
F80000
F80000
F80000
F80000
F80000
F80000
ENDCHAR
STARTCHAR 00B6
ENCODING 182
SWIDTH 792 0
DWIDTH 22 0
BBX 18 21 3 0
BITMAP
3FFFC0
3FFFC0
3FFFC0
FFF9C0
FFF9C0
FFF9C0
FFF9C0
FFF9C0
3FF9C0
3FF9C0
3FF9C0
0039C0
0039C0
0039C0
0039C0
0039C0
0039C0
0039C0
0039C0
0039C0
003FC0
ENDCHAR
STARTCHAR 00BB
ENCODING 187
SWIDTH 972 0
DWIDTH 27 0
BBX 23 18 3 0
BITMAP
F83E00
F83E00
1F07C0
1F07C0
1F07C0
07C1F0
07C1F0
00F83E
00F83E
00F83E
07C1F0
07C1F0
07C1F0
1F07C0
1F07C0
F83E00
F83E00
F83E00
ENDCHAR
STARTCHAR 00BF
ENCODING 191
SWIDTH 792 0
DWIDTH 22 0
BBX 18 21 3 0
BITMAP
00F800
00F800
00F800
00F800
00F800
000000
000000
000000
00F800
00F800
3FF800
3FC000
3FC000
F80000
F80000
F80000
F807C0
F807C0
3FFE00
3FFE00
3FFE00
ENDCHAR
STARTCHAR 00C0
ENCODING 192
SWIDTH 792 0
DWIDTH 22 0
BBX 18 29 3 0
BITMAP
0F8000
0F8000
0F8000
03E000
03E000
03E000
000000
000000
07F800
07F800
07F800
1F3E00
1F3E00
F807C0
F807C0
F807C0
F807C0
F807C0
FFFFC0
FFFFC0
FFFFC0
F807C0
F807C0
F807C0
F807C0
F807C0
F807C0
F807C0
F807C0
ENDCHAR
STARTCHAR 00C1
ENCODING 193
SWIDTH 792 0
DWIDTH 22 0
BBX 18 29 3 0
BITMAP
007C00
007C00
007C00
03E000
03E000
03E000
000000
000000
07F800
07F800
07F800
1F3E00
1F3E00
F807C0
F807C0
F807C0
F807C0
F807C0
FFFFC0
FFFFC0
FFFFC0
F807C0
F807C0
F807C0
F807C0
F807C0
F807C0
F807C0
F807C0
ENDCHAR
STARTCHAR 00C2
ENCODING 194
SWIDTH 792 0
DWIDTH 22 0
BBX 18 29 3 0
BITMAP
07F800
07F800
07F800
1F3E00
1F3E00
1F3E00
000000
000000
07F800
07F800
07F800
1F3E00
1F3E00
F807C0
F807C0
F807C0
F807C0
F807C0
FFFFC0
FFFFC0
FFFFC0
F807C0
F807C0
F807C0
F807C0
F807C0
F807C0
F807C0
F807C0
ENDCHAR
STARTCHAR 00C3
ENCODING 195
SWIDTH 792 0
DWIDTH 22 0
BBX 18 29 3 0
BITMAP
018C00
018C00
018C00
0E7000
0E7000
0E7000
000000
000000
07F800
07F800
07F800
1F3E00
1F3E00
F807C0
F807C0
F807C0
F807C0
F807C0
FFFFC0
FFFFC0
FFFFC0
F807C0
F807C0
F807C0
F807C0
F807C0
F807C0
F807C0
F807C0
ENDCHAR
STARTCHAR 00C4
ENCODING 196
SWIDTH 792 0
DWIDTH 22 0
BBX 18 29 3 0
BITMAP
1F3E00
1F3E00
1F3E00
1F3E00
1F3E00
000000
000000
000000
07F800
07F800
07F800
1F3E00
1F3E00
F807C0
F807C0
F807C0
F807C0
F807C0
FFFFC0
FFFFC0
FFFFC0
F807C0
F807C0
F807C0
F807C0
F807C0
F807C0
F807C0
F807C0
ENDCHAR
STARTCHAR 00C5
ENCODING 197
SWIDTH 792 0
DWIDTH 22 0
BBX 18 29 3 0
BITMAP
00C000
00C000
00C000
073800
073800
073800
00C000
00C000
07F800
07F800
07F800
1F3E00
1F3E00
F807C0
F807C0
F807C0
F807C0
F807C0
FFFFC0
FFFFC0
FFFFC0
F807C0
F807C0
F807C0
F807C0
F807C0
F807C0
F807C0
F807C0
ENDCHAR
STARTCHAR 00C6
ENCODING 198
SWIDTH 1044 0
DWIDTH 29 0
BBX 25 21 3 0
BITMAP
07FFFF80
07FFFF80
07FFFF80
1F3E0000
1F3E0000
F83E0000
F83E0000
F83E0000
F83FFE00
F83FFE00
FFFFFE00
FFFE0000
FFFE0000
F83E0000
F83E0000
F83E0000
F83E0000
F83E0000
F83FFF80
F83FFF80
F83FFF80
ENDCHAR
STARTCHAR 00C7
ENCODING 199
SWIDTH 792 0
DWIDTH 22 0
BBX 18 26 3 -5
BITMAP
07FE00
07FE00
07FE00
1F07C0
1F07C0
1F07C0
F80000
F80000
F80000
F80000
F80000
F80000
F80000
F80000
F80000
F80000
1F07C0
1F07C0
07FE00
07FE00
07FE00
003E00
003E00
07F800
07F800
07F800
ENDCHAR
STARTCHAR 00C8
ENCODING 200
SWIDTH 792 0
DWIDTH 22 0
BBX 18 29 3 0
BITMAP
0F8000
0F8000
0F8000
03E000
03E000
03E000
000000
000000
FFFFC0
FFFFC0
FFFFC0
F80000
F80000
F80000
F80000
F80000
FFF800
FFF800
FFF800
F80000
F80000
F80000
F80000
F80000
F80000
F80000
FFFFC0
FFFFC0
FFFFC0
ENDCHAR
STARTCHAR 00C9
ENCODING 201
SWIDTH 792 0
DWIDTH 22 0
BBX 18 29 3 0
BITMAP
007C00
007C00
007C00
03E000
03E000
03E000
000000
000000
FFFFC0
FFFFC0
FFFFC0
F80000
F80000
F80000
F80000
F80000
FFF800
FFF800
FFF800
F80000
F80000
F80000
F80000
F80000
F80000
F80000
FFFFC0
FFFFC0
FFFFC0
ENDCHAR
STARTCHAR 00CA
ENCODING 202
SWIDTH 792 0
DWIDTH 22 0
BBX 18 29 3 0
BITMAP
07F800
07F800
07F800
1F3E00
1F3E00
1F3E00
000000
000000
FFFFC0
FFFFC0
FFFFC0
F80000
F80000
F80000
F80000
F80000
FFF800
FFF800
FFF800
F80000
F80000
F80000
F80000
F80000
F80000
F80000
FFFFC0
FFFFC0
FFFFC0
ENDCHAR
STARTCHAR 00CB
ENCODING 203
SWIDTH 792 0
DWIDTH 22 0
BBX 18 29 3 0
BITMAP
1F3E00
1F3E00
1F3E00
1F3E00
1F3E00
000000
000000
000000
FFFFC0
FFFFC0
FFFFC0
F80000
F80000
F80000
F80000
F80000
FFF800
FFF800
FFF800
F80000
F80000
F80000
F80000
F80000
F80000
F80000
FFFFC0
FFFFC0
FFFFC0
ENDCHAR
STARTCHAR 00CC
ENCODING 204
SWIDTH 684 0
DWIDTH 19 0
BBX 15 29 3 0
BITMAP
1F00
1F00
1F00
07C0
07C0
07C0
0000
0000
FFFE
FFFE
FFFE
07C0
07C0
07C0
07C0
07C0
07C0
07C0
07C0
07C0
07C0
07C0
07C0
07C0
07C0
07C0
FFFE
FFFE
FFFE
ENDCHAR
STARTCHAR 00CD
ENCODING 205
SWIDTH 684 0
DWIDTH 19 0
BBX 15 29 3 0
BITMAP
00F8
00F8
00F8
07C0
07C0
07C0
0000
0000
FFFE
FFFE
FFFE
07C0
07C0
07C0
07C0
07C0
07C0
07C0
07C0
07C0
07C0
07C0
07C0
07C0
07C0
07C0
FFFE
FFFE
FFFE
ENDCHAR
STARTCHAR 00CE
ENCODING 206
SWIDTH 684 0
DWIDTH 19 0
BBX 15 29 3 0
BITMAP
0FF0
0FF0
0FF0
7C7C
7C7C
7C7C
0000
0000
FFFE
FFFE
FFFE
07C0
07C0
07C0
07C0
07C0
07C0
07C0
07C0
07C0
07C0
07C0
07C0
07C0
07C0
07C0
FFFE
FFFE
FFFE
ENDCHAR
STARTCHAR 00CF
ENCODING 207
SWIDTH 684 0
DWIDTH 19 0
BBX 15 29 3 0
BITMAP
7C7C
7C7C
7C7C
7C7C
7C7C
0000
0000
0000
FFFE
FFFE
FFFE
07C0
07C0
07C0
07C0
07C0
07C0
07C0
07C0
07C0
07C0
07C0
07C0
07C0
07C0
07C0
FFFE
FFFE
FFFE
ENDCHAR
STARTCHAR 00D0
ENCODING 208
SWIDTH 864 0
DWIDTH 24 0
BBX 20 21 3 0
BITMAP
1FFE00
1FFE00
1FFE00
1F07C0
1F07C0
1F07C0
1F01F0
1F01F0
1F01F0
FFF9F0
FFF9F0
FFF9F0
1F01F0
1F01F0
1F01F0
1F01F0
1F03C0
1F03C0
1FFE00
1FFE00
1FFE00
ENDCHAR
STARTCHAR 00D1
ENCODING 209
SWIDTH 792 0
DWIDTH 22 0
BBX 18 29 3 0
BITMAP
018C00
018C00
018C00
0E7000
0E7000
0E7000
000000
000000
E007C0
E007C0
E007C0
F807C0
F807C0
FF07C0
FF07C0
FF07C0
FFC7C0
FFC7C0
F8C7C0
F8FFC0
F8FFC0
F83FC0
F83FC0
F83FC0
F807C0
F807C0
F801C0
F801C0
F801C0
ENDCHAR
STARTCHAR 00D2
ENCODING 210
SWIDTH 792 0
DWIDTH 22 0
BBX 18 29 3 0
BITMAP
0F8000
0F8000
0F8000
03E000
03E000
03E000
000000
000000
3FFE00
3FFE00
3FFE00
F807C0
F807C0
F807C0
F807C0
F807C0
F807C0
F807C0
F807C0
F807C0
F807C0
F807C0
F807C0
F807C0
F807C0
F807C0
3FFE00
3FFE00
3FFE00
ENDCHAR
STARTCHAR 00D3
ENCODING 211
SWIDTH 792 0
DWIDTH 22 0
BBX 18 29 3 0
BITMAP
007C00
007C00
007C00
03E000
03E000
03E000
000000
000000
3FFE00
3FFE00
3FFE00
F807C0
F807C0
F807C0
F807C0
F807C0
F807C0
F807C0
F807C0
F807C0
F807C0
F807C0
F807C0
F807C0
F807C0
F807C0
3FFE00
3FFE00
3FFE00
ENDCHAR
STARTCHAR 00D4
ENCODING 212
SWIDTH 792 0
DWIDTH 22 0
BBX 18 29 3 0
BITMAP
07F800
07F800
07F800
1F3E00
1F3E00
1F3E00
000000
000000
1FFE00
1FFE00
1FFE00
F807C0
F807C0
F807C0
F807C0
F807C0
F807C0
F807C0
F807C0
F807C0
F807C0
F807C0
F807C0
F807C0
F807C0
F807C0
1FFE00
1FFE00
1FFE00
ENDCHAR
STARTCHAR 00D5
ENCODING 213
SWIDTH 792 0
DWIDTH 22 0
BBX 18 29 3 0
BITMAP
018C00
018C00
018C00
0E7000
0E7000
0E7000
000000
000000
3FFE00
3FFE00
3FFE00
F807C0
F807C0
F807C0
F807C0
F807C0
F807C0
F807C0
F807C0
F807C0
F807C0
F807C0
F807C0
F807C0
F807C0
F807C0
3FFE00
3FFE00
3FFE00
ENDCHAR
STARTCHAR 00D6
ENCODING 214
SWIDTH 792 0
DWIDTH 22 0
BBX 18 29 3 0
BITMAP
1F3E00
1F3E00
1F3E00
1F3E00
1F3E00
000000
000000
000000
1FFE00
1FFE00
1FFE00
F807C0
F807C0
F807C0
F807C0
F807C0
F807C0
F807C0
F807C0
F807C0
F807C0
F807C0
F807C0
F807C0
F807C0
F807C0
1FFE00
1FFE00
1FFE00
ENDCHAR
STARTCHAR 00D7
ENCODING 215
SWIDTH 612 0
DWIDTH 17 0
BBX 13 13 3 5
BITMAP
E038
E038
18C0
18C0
18C0
0700
0700
1FC0
18C0
18C0
E038
E038
E038
ENDCHAR
STARTCHAR 00D8
ENCODING 216
SWIDTH 792 0
DWIDTH 22 0
BBX 18 21 3 0
BITMAP
1FF9C0
1FF9C0
1FF9C0
F80600
F807C0
F83FC0
F83FC0
F83FC0
F9C7C0
F9C7C0
F9C7C0
F9C7C0
F9C7C0
FE07C0
FE07C0
FE07C0
1807C0
1807C0
E7F800
E7F800
E7F800
ENDCHAR
STARTCHAR 00D9
ENCODING 217
SWIDTH 792 0
DWIDTH 22 0
BBX 18 29 3 0
BITMAP
0F8000
0F8000
0F8000
03E000
03E000
03E000
000000
000000
F807C0
F807C0
F807C0
F807C0
F807C0
F807C0
F807C0
F807C0
F807C0
F807C0
F807C0
F807C0
F807C0
F807C0
F807C0
F807C0
F807C0
F807C0
3FFE00
3FFE00
3FFE00
ENDCHAR
STARTCHAR 00DA
ENCODING 218
SWIDTH 792 0
DWIDTH 22 0
BBX 18 29 3 0
BITMAP
007C00
007C00
007C00
03E000
03E000
03E000
000000
000000
F807C0
F807C0
F807C0
F807C0
F807C0
F807C0
F807C0
F807C0
F807C0
F807C0
F807C0
F807C0
F807C0
F807C0
F807C0
F807C0
F807C0
F807C0
3FFE00
3FFE00
3FFE00
ENDCHAR
STARTCHAR 00DB
ENCODING 219
SWIDTH 792 0
DWIDTH 22 0
BBX 18 29 3 0
BITMAP
07F800
07F800
07F800
1F3E00
1F3E00
1F3E00
000000
000000
F807C0
F807C0
F807C0
F807C0
F807C0
F807C0
F807C0
F807C0
F807C0
F807C0
F807C0
F807C0
F807C0
F807C0
F807C0
F807C0
F807C0
F807C0
1FFE00
1FFE00
1FFE00
ENDCHAR
STARTCHAR 00DC
ENCODING 220
SWIDTH 792 0
DWIDTH 22 0
BBX 18 29 3 0
BITMAP
1F3E00
1F3E00
1F3E00
1F3E00
1F3E00
000000
000000
000000
F807C0
F807C0
F807C0
F807C0
F807C0
F807C0
F807C0
F807C0
F807C0
F807C0
F807C0
F807C0
F807C0
F807C0
F807C0
F807C0
F807C0
F807C0
1FFE00
1FFE00
1FFE00
ENDCHAR
STARTCHAR 00DD
ENCODING 221
SWIDTH 792 0
DWIDTH 22 0
BBX 18 29 3 0
BITMAP
007C00
007C00
007C00
03E000
03E000
03E000
000000
000000
F807C0
F807C0
F807C0
F807C0
F807C0
F807C0
F807C0
F807C0
1F3E00
1F3E00
1F3E00
07F800
07F800
03E000
03E000
03E000
03E000
03E000
03E000
03E000
03E000
ENDCHAR
STARTCHAR 00DE
ENCODING 222
SWIDTH 792 0
DWIDTH 22 0
BBX 18 21 3 0
BITMAP
F80000
F80000
F80000
FFFE00
FFFE00
FFFE00
F807C0
F807C0
F807C0
F807C0
F807C0
F807C0
F807C0
F807C0
F807C0
F807C0
FFFE00
FFFE00
FFFE00
F80000
F80000
ENDCHAR
STARTCHAR 00DF
ENCODING 223
SWIDTH 792 0
DWIDTH 22 0
BBX 18 21 3 0
BITMAP
FFF800
FFF800
FFF800
F83E00
F83E00
F83E00
F83E00
F83E00
F8F800
F8F800
F8F800
F8F800
F8F800
F83E00
F83E00
F83E00
FBC7C0
FBC7C0
F8FE00
F8FE00
F8FE00
ENDCHAR
STARTCHAR 00E0
ENCODING 224
SWIDTH 792 0
DWIDTH 22 0
BBX 18 21 3 0
BITMAP
0F8000
0F8000
0F8000
03E000
03E000
03E000
000000
000000
3FFE00
3FFE00
3FFE00
0007C0
0007C0
3FFFC0
3FFFC0
3FFFC0
F807C0
F807C0
3FFFC0
3FFFC0
3FFFC0
ENDCHAR
STARTCHAR 00E1
ENCODING 225
SWIDTH 792 0
DWIDTH 22 0
BBX 18 21 3 0
BITMAP
007C00
007C00
007C00
03E000
03E000
03E000
000000
000000
3FFE00
3FFE00
3FFE00
0007C0
0007C0
3FFFC0
3FFFC0
3FFFC0
F807C0
F807C0
3FFFC0
3FFFC0
3FFFC0
ENDCHAR
STARTCHAR 00E2
ENCODING 226
SWIDTH 792 0
DWIDTH 22 0
BBX 18 21 3 0
BITMAP
07F800
07F800
07F800
1F3E00
1F3E00
1F3E00
000000
000000
1FFE00
1FFE00
1FFE00
0007C0
0007C0
1FFFC0
1FFFC0
1FFFC0
F807C0
F807C0
1FFFC0
1FFFC0
1FFFC0
ENDCHAR
STARTCHAR 00E3
ENCODING 227
SWIDTH 792 0
DWIDTH 22 0
BBX 18 21 3 0
BITMAP
018C00
018C00
018C00
0E7000
0E7000
0E7000
000000
000000
3FFE00
3FFE00
3FFE00
0007C0
0007C0
3FFFC0
3FFFC0
3FFFC0
F807C0
F807C0
3FFFC0
3FFFC0
3FFFC0
ENDCHAR
STARTCHAR 00E4
ENCODING 228
SWIDTH 792 0
DWIDTH 22 0
BBX 18 21 3 0
BITMAP
1F3E00
1F3E00
1F3E00
1F3E00
1F3E00
000000
000000
000000
1FFE00
1FFE00
1FFE00
0007C0
0007C0
1FFFC0
1FFFC0
1FFFC0
F807C0
F807C0
1FFFC0
1FFFC0
1FFFC0
ENDCHAR
STARTCHAR 00E5
ENCODING 229
SWIDTH 864 0
DWIDTH 24 0
BBX 19 21 3 0
BITMAP
00C000
00C000
00C000
073C00
073C00
00C000
00C000
00C000
3FFE00
3FFE00
3FFE00
0003E0
0003E0
3FFFE0
3FFFE0
3FFFE0
F803E0
F803E0
3FFFE0
3FFFE0
3FFFE0
ENDCHAR
STARTCHAR 00E6
ENCODING 230
SWIDTH 1332 0
DWIDTH 37 0
BBX 33 13 3 0
BITMAP
3FFE7FFC00
3FFE7FFC00
3FFFFFFF80
000FF00F80
000FF00F80
3FFFFFFF80
3FFFFFFF80
3FFFFFFF80
F80FF00000
F80FF00000
3FFE7FFC00
3FFE7FFC00
3FFE7FFC00
ENDCHAR
STARTCHAR 00E7
ENCODING 231
SWIDTH 792 0
DWIDTH 22 0
BBX 18 18 3 -5
BITMAP
3FFE00
3FFE00
FFFFC0
F807C0
F807C0
F80000
F80000
F80000
F807C0
F807C0
3FFE00
3FFE00
3FFE00
003E00
003E00
07F800
07F800
07F800
ENDCHAR
STARTCHAR 00E8
ENCODING 232
SWIDTH 792 0
DWIDTH 22 0
BBX 18 21 3 0
BITMAP
0F8000
0F8000
0F8000
03E000
03E000
03E000
000000
000000
3FFE00
3FFE00
3FFE00
F807C0
F807C0
FFFFC0
FFFFC0
FFFFC0
F80000
F80000
3FFE00
3FFE00
3FFE00
ENDCHAR
STARTCHAR 00E9
ENCODING 233
SWIDTH 792 0
DWIDTH 22 0
BBX 18 21 3 0
BITMAP
007C00
007C00
007C00
03E000
03E000
03E000
000000
000000
3FFE00
3FFE00
3FFE00
F807C0
F807C0
FFFFC0
FFFFC0
FFFFC0
F80000
F80000
3FFE00
3FFE00
3FFE00
ENDCHAR
STARTCHAR 00EA
ENCODING 234
SWIDTH 792 0
DWIDTH 22 0
BBX 18 21 3 0
BITMAP
07F800
07F800
07F800
1F3E00
1F3E00
1F3E00
000000
000000
1FFE00
1FFE00
1FFE00
F807C0
F807C0
FFFFC0
FFFFC0
FFFFC0
F80000
F80000
1FFE00
1FFE00
1FFE00
ENDCHAR
STARTCHAR 00EB
ENCODING 235
SWIDTH 792 0
DWIDTH 22 0
BBX 18 21 3 0
BITMAP
1F3E00
1F3E00
1F3E00
1F3E00
1F3E00
000000
000000
000000
1FFE00
1FFE00
1FFE00
F807C0
F807C0
FFFFC0
FFFFC0
FFFFC0
F80000
F80000
1FFE00
1FFE00
1FFE00
ENDCHAR
STARTCHAR 00EC
ENCODING 236
SWIDTH 324 0
DWIDTH 9 0
BBX 8 21 0 0
BITMAP
F8
F8
F8
1F
1F
1F
00
00
1F
1F
1F
1F
1F
1F
1F
1F
1F
1F
1F
1F
1F
ENDCHAR
STARTCHAR 00ED
ENCODING 237
SWIDTH 432 0
DWIDTH 12 0
BBX 8 21 3 0
BITMAP
1F
1F
1F
F8
F8
F8
00
00
F8
F8
F8
F8
F8
F8
F8
F8
F8
F8
F8
F8
F8
ENDCHAR
STARTCHAR 00EE
ENCODING 238
SWIDTH 468 0
DWIDTH 13 0
BBX 13 21 -1 0
BITMAP
3FC0
3FC0
3FC0
F8F8
F8F8
F8F8
0000
0000
0F80
0F80
0F80
0F80
0F80
0F80
0F80
0F80
0F80
0F80
0F80
0F80
0F80
ENDCHAR
STARTCHAR 00EF
ENCODING 239
SWIDTH 468 0
DWIDTH 13 0
BBX 13 21 -1 0
BITMAP
F8F8
F8F8
F8F8
F8F8
F8F8
0000
0000
0000
0F80
0F80
0F80
0F80
0F80
0F80
0F80
0F80
0F80
0F80
0F80
0F80
0F80
ENDCHAR
STARTCHAR 00F0
ENCODING 240
SWIDTH 864 0
DWIDTH 24 0
BBX 20 21 3 0
BITMAP
0007C0
0007C0
0007C0
01FFF0
01FFF0
01FFF0
0007C0
0007C0
3FFFC0
3FFFC0
FFFFC0
F807C0
F807C0
F807C0
F807C0
F807C0
F807C0
F807C0
3FFE00
3FFE00
3FFE00
ENDCHAR
STARTCHAR 00F1
ENCODING 241
SWIDTH 792 0
DWIDTH 22 0
BBX 18 21 3 0
BITMAP
018C00
018C00
018C00
0E7000
0E7000
0E7000
000000
000000
FFFE00
FFFE00
FFFE00
F807C0
F807C0
F807C0
F807C0
F807C0
F807C0
F807C0
F807C0
F807C0
F807C0
ENDCHAR
STARTCHAR 00F2
ENCODING 242
SWIDTH 792 0
DWIDTH 22 0
BBX 18 21 3 0
BITMAP
0F8000
0F8000
0F8000
03E000
03E000
03E000
000000
000000
3FFE00
3FFE00
3FFE00
F807C0
F807C0
F807C0
F807C0
F807C0
F807C0
F807C0
3FFE00
3FFE00
3FFE00
ENDCHAR
STARTCHAR 00F3
ENCODING 243
SWIDTH 792 0
DWIDTH 22 0
BBX 18 21 3 0
BITMAP
007C00
007C00
007C00
03E000
03E000
03E000
000000
000000
3FFE00
3FFE00
3FFE00
F807C0
F807C0
F807C0
F807C0
F807C0
F807C0
F807C0
3FFE00
3FFE00
3FFE00
ENDCHAR
STARTCHAR 00F4
ENCODING 244
SWIDTH 792 0
DWIDTH 22 0
BBX 18 21 3 0
BITMAP
07F800
07F800
07F800
1F3E00
1F3E00
1F3E00
000000
000000
1FFE00
1FFE00
1FFE00
F807C0
F807C0
F807C0
F807C0
F807C0
F807C0
F807C0
1FFE00
1FFE00
1FFE00
ENDCHAR
STARTCHAR 00F5
ENCODING 245
SWIDTH 792 0
DWIDTH 22 0
BBX 18 21 3 0
BITMAP
018C00
018C00
018C00
0E7000
0E7000
0E7000
000000
000000
3FFE00
3FFE00
3FFE00
F807C0
F807C0
F807C0
F807C0
F807C0
F807C0
F807C0
3FFE00
3FFE00
3FFE00
ENDCHAR
STARTCHAR 00F6
ENCODING 246
SWIDTH 792 0
DWIDTH 22 0
BBX 18 21 3 0
BITMAP
1F3E00
1F3E00
1F3E00
1F3E00
1F3E00
000000
000000
000000
1FFE00
1FFE00
1FFE00
F807C0
F807C0
F807C0
F807C0
F807C0
F807C0
F807C0
1FFE00
1FFE00
1FFE00
ENDCHAR
STARTCHAR 00F7
ENCODING 247
SWIDTH 684 0
DWIDTH 19 0
BBX 15 13 3 3
BITMAP
07C0
07C0
07C0
0000
0000
FFFE
FFFE
FFFE
0000
0000
07C0
07C0
07C0
ENDCHAR
STARTCHAR 00F8
ENCODING 248
SWIDTH 792 0
DWIDTH 22 0
BBX 18 13 3 0
BITMAP
1FFBC0
1FFFC0
1FFFC0
F83F00
F87E00
F9E7C0
FBC7C0
FBC7C0
1F87C0
7E07C0
FFFE00
FFFE00
E7FE00
ENDCHAR
STARTCHAR 00F9
ENCODING 249
SWIDTH 792 0
DWIDTH 22 0
BBX 18 21 3 0
BITMAP
0F8000
0F8000
0F8000
03E000
03E000
03E000
000000
000000
F807C0
F807C0
F807C0
F807C0
F807C0
F807C0
F807C0
F807C0
F807C0
F807C0
1FFFC0
1FFFC0
1FFFC0
ENDCHAR
STARTCHAR 00FA
ENCODING 250
SWIDTH 792 0
DWIDTH 22 0
BBX 18 21 3 0
BITMAP
007C00
007C00
007C00
03E000
03E000
03E000
000000
000000
F807C0
F807C0
F807C0
F807C0
F807C0
F807C0
F807C0
F807C0
F807C0
F807C0
1FFFC0
1FFFC0
1FFFC0
ENDCHAR
STARTCHAR 00FB
ENCODING 251
SWIDTH 792 0
DWIDTH 22 0
BBX 18 21 3 0
BITMAP
07F800
07F800
07F800
1F3E00
1F3E00
1F3E00
000000
000000
F807C0
F807C0
F807C0
F807C0
F807C0
F807C0
F807C0
F807C0
F807C0
F807C0
1FFFC0
1FFFC0
1FFFC0
ENDCHAR
STARTCHAR 00FC
ENCODING 252
SWIDTH 792 0
DWIDTH 22 0
BBX 18 21 3 0
BITMAP
1F3E00
1F3E00
1F3E00
1F3E00
1F3E00
000000
000000
000000
F807C0
F807C0
F807C0
F807C0
F807C0
F807C0
F807C0
F807C0
F807C0
F807C0
1FFFC0
1FFFC0
1FFFC0
ENDCHAR
STARTCHAR 00FD
ENCODING 253
SWIDTH 792 0
DWIDTH 22 0
BBX 18 29 3 -8
BITMAP
007C00
007C00
007C00
03E000
03E000
03E000
000000
000000
F807C0
F807C0
F807C0
F807C0
F807C0
F807C0
F807C0
F807C0
F807C0
F807C0
3FFFC0
3FFFC0
3FFFC0
0007C0
0007C0
0007C0
0007C0
0007C0
3FFE00
3FFE00
3FFE00
ENDCHAR
STARTCHAR 00FE
ENCODING 254
SWIDTH 792 0
DWIDTH 22 0
BBX 18 29 3 -8
BITMAP
F80000
F80000
F80000
F80000
F80000
F80000
F80000
F80000
FFFE00
FFFE00
FFFE00
F807C0
F807C0
F807C0
F807C0
F807C0
F807C0
F807C0
FFFE00
FFFE00
FFFE00
F80000
F80000
F80000
F80000
F80000
F80000
F80000
F80000
ENDCHAR
STARTCHAR 00FF
ENCODING 255
SWIDTH 792 0
DWIDTH 22 0
BBX 18 29 3 -8
BITMAP
1F3E00
1F3E00
1F3E00
1F3E00
1F3E00
000000
000000
000000
F807C0
F807C0
F807C0
F807C0
F807C0
F807C0
F807C0
F807C0
F807C0
F807C0
1FFFC0
1FFFC0
1FFFC0
0007C0
0007C0
0007C0
0007C0
0007C0
1FFE00
1FFE00
1FFE00
ENDCHAR
STARTCHAR 0178
ENCODING 376
SWIDTH 792 0
DWIDTH 22 0
BBX 18 29 3 0
BITMAP
1F3E00
1F3E00
1F3E00
1F3E00
1F3E00
000000
000000
000000
F807C0
F807C0
F807C0
F807C0
F807C0
F807C0
F807C0
F807C0
1F3E00
1F3E00
1F3E00
07F800
07F800
03E000
03E000
03E000
03E000
03E000
03E000
03E000
03E000
ENDCHAR
STARTCHAR 0391
ENCODING 913
SWIDTH 792 0
DWIDTH 22 0
BBX 18 21 3 0
BITMAP
07F800
07F800
07F800
1F3E00
1F3E00
F807C0
F807C0
F807C0
F807C0
F807C0
FFFFC0
FFFFC0
FFFFC0
F807C0
F807C0
F807C0
F807C0
F807C0
F807C0
F807C0
F807C0
ENDCHAR
STARTCHAR 0392
ENCODING 914
SWIDTH 792 0
DWIDTH 22 0
BBX 18 21 3 0
BITMAP
FFFE00
FFFE00
FFFE00
F807C0
F807C0
F807C0
F807C0
F807C0
FFFE00
FFFE00
FFFE00
F807C0
F807C0
F807C0
F807C0
F807C0
F807C0
F807C0
FFFE00
FFFE00
FFFE00
ENDCHAR
STARTCHAR 0393
ENCODING 915
SWIDTH 684 0
DWIDTH 19 0
BBX 15 21 3 0
BITMAP
FFFE
FFFE
FFFE
F800
F800
F800
F800
F800
F800
F800
F800
F800
F800
F800
F800
F800
F800
F800
F800
F800
F800
ENDCHAR
STARTCHAR 0394
ENCODING 916
SWIDTH 1044 0
DWIDTH 29 0
BBX 25 21 3 0
BITMAP
003E0000
003E0000
003E0000
00FFC000
00E3C000
00E3C000
00E3C000
07C1F000
07C1F000
07C1F000
07C1F000
07C1F000
1F003E00
1F003E00
1F003E00
1F003E00
1F003E00
FFFFFF80
FFFFFF80
FFFFFF80
FFFFFF80
ENDCHAR
STARTCHAR 0395
ENCODING 917
SWIDTH 792 0
DWIDTH 22 0
BBX 18 21 3 0
BITMAP
FFFFC0
FFFFC0
FFFFC0
F80000
F80000
F80000
F80000
F80000
FFF800
FFF800
FFF800
F80000
F80000
F80000
F80000
F80000
F80000
F80000
FFFFC0
FFFFC0
FFFFC0
ENDCHAR
STARTCHAR 0396
ENCODING 918
SWIDTH 792 0
DWIDTH 22 0
BBX 18 21 3 0
BITMAP
FFFFC0
FFFFC0
FFFFC0
0007C0
0007C0
003E00
003E00
003E00
00F800
00F800
00C000
07C000
07C000
1F0000
1F0000
1F0000
F80000
F80000
FFFFC0
FFFFC0
FFFFC0
ENDCHAR
STARTCHAR 0397
ENCODING 919
SWIDTH 792 0
DWIDTH 22 0
BBX 18 21 3 0
BITMAP
F807C0
F807C0
F807C0
F807C0
F807C0
F807C0
F807C0
F807C0
FFFFC0
FFFFC0
FFFFC0
F807C0
F807C0
F807C0
F807C0
F807C0
F807C0
F807C0
F807C0
F807C0
F807C0
ENDCHAR
STARTCHAR 0398
ENCODING 920
SWIDTH 792 0
DWIDTH 22 0
BBX 18 21 3 0
BITMAP
3FFE00
3FFE00
3FFE00
F807C0
F807C0
F807C0
F807C0
F807C0
F807C0
FBE7C0
FBE7C0
FBE7C0
F807C0
F807C0
F807C0
F807C0
F807C0
F807C0
3FFE00
3FFE00
3FFE00
ENDCHAR
STARTCHAR 0399
ENCODING 921
SWIDTH 684 0
DWIDTH 19 0
BBX 15 21 3 0
BITMAP
FFFE
FFFE
FFFE
07C0
07C0
07C0
07C0
07C0
07C0
07C0
07C0
07C0
07C0
07C0
07C0
07C0
07C0
07C0
FFFE
FFFE
FFFE
ENDCHAR
STARTCHAR 039A
ENCODING 922
SWIDTH 792 0
DWIDTH 22 0
BBX 18 21 3 0
BITMAP
F807C0
F807C0
F807C0
F83E00
F83E00
F8F800
F8F800
F8F800
FFC000
FFC000
FFC000
F8F800
F8F800
F83E00
F83E00
F83E00
F807C0
F807C0
F807C0
F807C0
F807C0
ENDCHAR
STARTCHAR 039B
ENCODING 923
SWIDTH 1044 0
DWIDTH 29 0
BBX 25 21 3 0
BITMAP
003E0000
003E0000
003E0000
00FFC000
00E3C000
00E3C000
00E3C000
07C1F000
07C1F000
07C1F000
07C1F000
07C1F000
1F003E00
1F003E00
1F003E00
1F003E00
1F003E00
F8000F80
F8000F80
F8000F80
F8000F80
ENDCHAR
STARTCHAR 039C
ENCODING 924
SWIDTH 792 0
DWIDTH 22 0
BBX 18 21 3 0
BITMAP
E001C0
E001C0
E001C0
F80FC0
F80FC0
FE3FC0
FE3FC0
FE3FC0
FFFFC0
FFFFC0
F9CFC0
F9CFC0
F9CFC0
F80FC0
F80FC0
F80FC0
F80FC0
F80FC0
F80FC0
F80FC0
F80FC0
ENDCHAR
STARTCHAR 039D
ENCODING 925
SWIDTH 792 0
DWIDTH 22 0
BBX 18 21 3 0
BITMAP
E007C0
E007C0
E007C0
F807C0
F807C0
FF07C0
FF07C0
FF07C0
FFC7C0
FFC7C0
F8C7C0
F8FFC0
F8FFC0
F83FC0
F83FC0
F83FC0
F807C0
F807C0
F801C0
F801C0
F801C0
ENDCHAR
STARTCHAR 039E
ENCODING 926
SWIDTH 792 0
DWIDTH 22 0
BBX 18 21 3 0
BITMAP
FFFFC0
FFFFC0
FFFFC0
000000
000000
000000
000000
000000
000000
0FFC00
0FFC00
0FFC00
000000
000000
000000
000000
000000
000000
FFFFC0
FFFFC0
FFFFC0
ENDCHAR
STARTCHAR 039F
ENCODING 927
SWIDTH 792 0
DWIDTH 22 0
BBX 18 21 3 0
BITMAP
3FFE00
3FFE00
3FFE00
F807C0
F807C0
F807C0
F807C0
F807C0
F807C0
F807C0
F807C0
F807C0
F807C0
F807C0
F807C0
F807C0
F807C0
F807C0
3FFE00
3FFE00
3FFE00
ENDCHAR
STARTCHAR 03A0
ENCODING 928
SWIDTH 972 0
DWIDTH 27 0
BBX 23 21 3 0
BITMAP
FFFFFE
FFFFFE
FFFFFE
1F01F0
1F01F0
1F01F0
1F01F0
1F01F0
1F01F0
1F01F0
1F01F0
1F01F0
1F01F0
1F01F0
1F01F0
1F01F0
1F01F0
1F01F0
1F01F0
1F01F0
1F01F0
ENDCHAR
STARTCHAR 03A1
ENCODING 929
SWIDTH 792 0
DWIDTH 22 0
BBX 18 21 3 0
BITMAP
FFFE00
FFFE00
FFFE00
F807C0
F807C0
F807C0
F807C0
F807C0
FFFE00
FFFE00
FFFE00
F80000
F80000
F80000
F80000
F80000
F80000
F80000
F80000
F80000
F80000
ENDCHAR
STARTCHAR 03A3
ENCODING 931
SWIDTH 792 0
DWIDTH 22 0
BBX 18 21 3 0
BITMAP
FFFFC0
FFFFC0
FFFFC0
F80000
F80000
F80000
F80000
1F0000
1F0000
07C000
07C000
07C000
1F0000
1F0000
180000
F80000
F80000
F80000
FFFFC0
FFFFC0
FFFFC0
ENDCHAR
STARTCHAR 03A4
ENCODING 932
SWIDTH 792 0
DWIDTH 22 0
BBX 18 21 3 0
BITMAP
FFFFC0
FFFFC0
FFFFC0
07E000
07E000
07E000
07E000
07E000
07E000
07E000
07E000
07E000
07E000
07E000
07E000
07E000
07E000
07E000
07E000
07E000
07E000
ENDCHAR
STARTCHAR 03A5
ENCODING 933
SWIDTH 972 0
DWIDTH 27 0
BBX 23 21 3 0
BITMAP
F8003E
F8003E
F8003E
1F01F0
1F01F0
1F01F0
1F01F0
1F01F0
07C7C0
07C7C0
07C7C0
00FE00
00FE00
007C00
007C00
007C00
007C00
007C00
007C00
007C00
007C00
ENDCHAR
STARTCHAR 03A6
ENCODING 934
SWIDTH 972 0
DWIDTH 27 0
BBX 23 21 3 0
BITMAP
007C00
007C00
007C00
3FFFF0
3FFFF0
3FFFF0
F87C3E
F87C3E
F87C3E
F87C3E
F87C3E
F87C3E
F87C3E
F87C3E
F87C3E
F87C3E
3FFFF0
3FFFF0
3FFFF0
007C00
007C00
ENDCHAR
STARTCHAR 03A7
ENCODING 935
SWIDTH 792 0
DWIDTH 22 0
BBX 18 21 3 0
BITMAP
F807C0
F807C0
F807C0
F807C0
F807C0
1F3E00
1F3E00
1F3E00
07F800
07F800
07F800
1F3E00
1F3E00
F807C0
F807C0
F807C0
F807C0
F807C0
F807C0
F807C0
F807C0
ENDCHAR
STARTCHAR 03A8
ENCODING 936
SWIDTH 1152 0
DWIDTH 32 0
BBX 28 21 3 0
BITMAP
F81F01F0
F81F01F0
F81F01F0
1F1F0F80
1F1F0F80
07DF3E00
07DF3E00
07DF3E00
00FFF000
00FFF000
003FC000
003FC000
003FC000
001F0000
001F0000
001F0000
001F0000
001F0000
001F0000
001F0000
001F0000
ENDCHAR
STARTCHAR 03A9
ENCODING 937
SWIDTH 1152 0
DWIDTH 32 0
BBX 28 21 3 0
BITMAP
07FFFE00
07FFFE00
07FFFE00
1F000F80
1F000F80
F80001F0
F80001F0
F80001F0
F80001F0
F80001F0
18000180
1F000F80
1F000F80
07C03E00
07C03E00
07C03E00
00F9F000
00F9F000
FFF9FFF0
FFF9FFF0
FFF9FFF0
ENDCHAR
STARTCHAR 03B1
ENCODING 945
SWIDTH 792 0
DWIDTH 22 0
BBX 18 13 3 0
BITMAP
3FC7C0
3FC7C0
3FC7C0
F8FE00
F8FE00
F83E00
F83E00
F83E00
F8FE00
F8FE00
3FC7C0
3FC7C0
3FC7C0
ENDCHAR
STARTCHAR 03B2
ENCODING 946
SWIDTH 792 0
DWIDTH 22 0
BBX 18 29 3 -8
BITMAP
07FE00
07FE00
07FE00
1F07C0
1F07C0
1F07C0
F807C0
F807C0
F807C0
F8FE00
F8FE00
F8FE00
F807C0
F807C0
F807C0
F807C0
FF3E00
FF3E00
F8F800
F8F800
F8F800
F80000
F80000
F80000
F80000
F80000
F80000
F80000
F80000
ENDCHAR
STARTCHAR 0401
ENCODING 1025
SWIDTH 792 0
DWIDTH 22 0
BBX 18 29 3 0
BITMAP
1F3E00
1F3E00
1F3E00
1F3E00
1F3E00
000000
000000
000000
FFFFC0
FFFFC0
FFFFC0
F80000
F80000
F80000
F80000
F80000
FFF800
FFF800
FFF800
F80000
F80000
F80000
F80000
F80000
F80000
F80000
FFFFC0
FFFFC0
FFFFC0
ENDCHAR
STARTCHAR 0404
ENCODING 1028
SWIDTH 792 0
DWIDTH 22 0
BBX 18 21 3 0
BITMAP
07FE00
07FE00
07FE00
1F07C0
1F07C0
1F07C0
F80000
F80000
F80000
FFF800
FFF800
FFF800
F80000
F80000
F80000
F80000
1F07C0
1F07C0
07FE00
07FE00
07FE00
ENDCHAR
STARTCHAR 0406
ENCODING 1030
SWIDTH 684 0
DWIDTH 19 0
BBX 15 21 3 0
BITMAP
FFFE
FFFE
FFFE
07C0
07C0
07C0
07C0
07C0
07C0
07C0
07C0
07C0
07C0
07C0
07C0
07C0
07C0
07C0
FFFE
FFFE
FFFE
ENDCHAR
STARTCHAR 0407
ENCODING 1031
SWIDTH 720 0
DWIDTH 20 0
BBX 16 29 3 0
BITMAP
7C7C
7C7C
7C7C
7C7C
7C7C
0000
0000
0000
FFFE
FFFE
FFFE
07E0
07E0
07E0
07E0
07E0
07E0
07E0
07E0
07E0
07E0
07E0
07E0
07E0
07E0
07E0
FFFF
FFFF
FFFF
ENDCHAR
STARTCHAR 0409
ENCODING 1033
SWIDTH 1188 0
DWIDTH 33 0
BBX 29 21 3 0
BITMAP
07FFC000
07FFC000
07FFC000
1F07C000
1F07C000
1F07C000
1F07C000
1F07C000
1F07FFE0
1F07FFE0
1F07FFE0
1F07C0F8
1F07C0F8
1F07C0F8
1F07C0F8
1F07C0F8
1F07C0F8
1F07C0F8
F807FFE0
F807FFE0
F807FFE0
ENDCHAR
STARTCHAR 040A
ENCODING 1034
SWIDTH 1152 0
DWIDTH 32 0
BBX 28 21 3 0
BITMAP
F807C000
F807C000
F807C000
F807C000
F807C000
F807C000
F807C000
F807C000
FFFFFF80
FFFFFF80
FFFFFF80
F807C1F0
F807C1F0
F807C1F0
F807C1F0
F807C1F0
F807C1F0
F807C1F0
F807FF80
F807FF80
F807FF80
ENDCHAR
STARTCHAR 0410
ENCODING 1040
SWIDTH 792 0
DWIDTH 22 0
BBX 18 21 3 0
BITMAP
07F800
07F800
07F800
1F3E00
1F3E00
F807C0
F807C0
F807C0
F807C0
FFFFC0
FFFFC0
FFFFC0
F807C0
F807C0
F807C0
F807C0
F807C0
F807C0
F807C0
F807C0
F807C0
ENDCHAR
STARTCHAR 0411
ENCODING 1041
SWIDTH 792 0
DWIDTH 22 0
BBX 18 21 3 0
BITMAP
FFFE00
FFFE00
FFFE00
F80000
F80000
F80000
F80000
F80000
FFFE00
FFFE00
FFFE00
F807C0
F807C0
F807C0
F807C0
F807C0
F807C0
F807C0
FFFE00
FFFE00
FFFE00
ENDCHAR
STARTCHAR 0412
ENCODING 1042
SWIDTH 792 0
DWIDTH 22 0
BBX 18 21 3 0
BITMAP
FFFE00
FFFE00
FFFE00
F807C0
F807C0
F807C0
F807C0
F807C0
FFFE00
FFFE00
FFFE00
F807C0
F807C0
F807C0
F807C0
F807C0
F807C0
F807C0
FFFE00
FFFE00
FFFE00
ENDCHAR
STARTCHAR 0413
ENCODING 1043
SWIDTH 684 0
DWIDTH 19 0
BBX 15 21 3 0
BITMAP
FFFE
FFFE
FFFE
F800
F800
F800
F800
F800
F800
F800
F800
F800
F800
F800
F800
F800
F800
F800
F800
F800
F800
ENDCHAR
STARTCHAR 0414
ENCODING 1044
SWIDTH 864 0
DWIDTH 24 0
BBX 20 24 3 -3
BITMAP
07FFC0
07FFC0
07FFC0
1F07C0
1F07C0
1F07C0
1F07C0
1F07C0
1F07C0
1F07C0
1F07C0
1F07C0
1F07C0
1F07C0
1F07C0
1F07C0
1F07C0
1F07C0
FFFFF0
FFFFF0
FFFFF0
F801F0
F801F0
F801F0
ENDCHAR
STARTCHAR 0415
ENCODING 1045
SWIDTH 792 0
DWIDTH 22 0
BBX 18 21 3 0
BITMAP
FFFFC0
FFFFC0
FFFFC0
F80000
F80000
F80000
F80000
F80000
FFF800
FFF800
FFF800
F80000
F80000
F80000
F80000
F80000
F80000
F80000
FFFFC0
FFFFC0
FFFFC0
ENDCHAR
STARTCHAR 0416
ENCODING 1046
SWIDTH 864 0
DWIDTH 24 0
BBX 20 21 3 0
BITMAP
F8F9F0
F8F9F0
F8F9F0
F8F9F0
F8F9F0
F8F9F0
F8F9F0
F8F9F0
1FFFC0
1FFFC0
1FFFC0
F8F9F0
F8F9F0
F8F9F0
F8F9F0
F8F9F0
F8F9F0
F8F9F0
F8F9F0
F8F9F0
F8F9F0
ENDCHAR
STARTCHAR 0417
ENCODING 1047
SWIDTH 792 0
DWIDTH 22 0
BBX 18 21 3 0
BITMAP
3FFE00
3FFE00
3FFE00
F807C0
F807C0
F807C0
0007C0
0007C0
0007C0
03FE00
03FE00
0007C0
0007C0
0007C0
0007C0
0007C0
F807C0
F807C0
3FFE00
3FFE00
3FFE00
ENDCHAR
STARTCHAR 0418
ENCODING 1048
SWIDTH 792 0
DWIDTH 22 0
BBX 18 21 3 0
BITMAP
F801C0
F801C0
F801C0
F807C0
F807C0
F83FC0
F83FC0
F83FC0
F8FFC0
F8FFC0
F8C7C0
FFC7C0
FFC7C0
FF07C0
FF07C0
FF07C0
F807C0
F807C0
E007C0
E007C0
E007C0
ENDCHAR
STARTCHAR 0419
ENCODING 1049
SWIDTH 792 0
DWIDTH 22 0
BBX 18 29 3 0
BITMAP
7C1F00
7C1F00
7C1F00
0FFC00
0FFC00
0FFC00
000000
000000
F801C0
F801C0
F801C0
F807C0
F807C0
F83FC0
F83FC0
F83FC0
F9FFC0
F9FFC0
F9C7C0
FFC7C0
FFC7C0
FE07C0
FE07C0
FE07C0
F807C0
F807C0
E007C0
E007C0
E007C0
ENDCHAR
STARTCHAR 041A
ENCODING 1050
SWIDTH 792 0
DWIDTH 22 0
BBX 18 21 3 0
BITMAP
F807C0
F807C0
F807C0
F83E00
F83E00
F8F800
F8F800
F8F800
FFC000
FFC000
FFC000
F8F800
F8F800
F83E00
F83E00
F83E00
F807C0
F807C0
F807C0
F807C0
F807C0
ENDCHAR
STARTCHAR 041B
ENCODING 1051
SWIDTH 792 0
DWIDTH 22 0
BBX 18 21 3 0
BITMAP
07FFC0
07FFC0
07FFC0
1F07C0
1F07C0
1F07C0
1F07C0
1F07C0
1F07C0
1F07C0
1F07C0
1F07C0
1F07C0
1F07C0
1F07C0
1F07C0
1F07C0
1F07C0
F807C0
F807C0
F807C0
ENDCHAR
STARTCHAR 041C
ENCODING 1052
SWIDTH 792 0
DWIDTH 22 0
BBX 18 21 3 0
BITMAP
E001C0
E001C0
E001C0
F80FC0
F80FC0
FE3FC0
FE3FC0
FE3FC0
FFFFC0
FFFFC0
F9CFC0
F9CFC0
F9CFC0
F80FC0
F80FC0
F80FC0
F80FC0
F80FC0
F80FC0
F80FC0
F80FC0
ENDCHAR
STARTCHAR 041D
ENCODING 1053
SWIDTH 792 0
DWIDTH 22 0
BBX 18 21 3 0
BITMAP
F807C0
F807C0
F807C0
F807C0
F807C0
F807C0
F807C0
F807C0
FFFFC0
FFFFC0
FFFFC0
F807C0
F807C0
F807C0
F807C0
F807C0
F807C0
F807C0
F807C0
F807C0
F807C0
ENDCHAR
STARTCHAR 041E
ENCODING 1054
SWIDTH 792 0
DWIDTH 22 0
BBX 18 21 3 0
BITMAP
3FFE00
3FFE00
3FFE00
F807C0
F807C0
F807C0
F807C0
F807C0
F807C0
F807C0
F807C0
F807C0
F807C0
F807C0
F807C0
F807C0
F807C0
F807C0
3FFE00
3FFE00
3FFE00
ENDCHAR
STARTCHAR 041F
ENCODING 1055
SWIDTH 792 0
DWIDTH 22 0
BBX 18 21 3 0
BITMAP
FFFFC0
FFFFC0
FFFFC0
F807C0
F807C0
F807C0
F807C0
F807C0
F807C0
F807C0
F807C0
F807C0
F807C0
F807C0
F807C0
F807C0
F807C0
F807C0
F807C0
F807C0
F807C0
ENDCHAR
STARTCHAR 0420
ENCODING 1056
SWIDTH 792 0
DWIDTH 22 0
BBX 18 21 3 0
BITMAP
FFFE00
FFFE00
FFFE00
F807C0
F807C0
F807C0
F807C0
F807C0
FFFE00
FFFE00
FFFE00
F80000
F80000
F80000
F80000
F80000
F80000
F80000
F80000
F80000
F80000
ENDCHAR
STARTCHAR 0421
ENCODING 1057
SWIDTH 792 0
DWIDTH 22 0
BBX 18 21 3 0
BITMAP
07FE00
07FE00
07FE00
1F07C0
1F07C0
1F07C0
F80000
F80000
F80000
F80000
F80000
F80000
F80000
F80000
F80000
F80000
1F07C0
1F07C0
07FE00
07FE00
07FE00
ENDCHAR
STARTCHAR 0422
ENCODING 1058
SWIDTH 792 0
DWIDTH 22 0
BBX 18 21 3 0
BITMAP
FFFFC0
FFFFC0
FFFFC0
03E000
03E000
03E000
03E000
03E000
03E000
03E000
03E000
03E000
03E000
03E000
03E000
03E000
03E000
03E000
03E000
03E000
03E000
ENDCHAR
STARTCHAR 0423
ENCODING 1059
SWIDTH 792 0
DWIDTH 22 0
BBX 18 21 3 0
BITMAP
F807C0
F807C0
F807C0
F807C0
F807C0
F807C0
F807C0
F807C0
F807C0
3FFFC0
3FFFC0
3FFFC0
0007C0
0007C0
0007C0
0007C0
F807C0
F807C0
3FFE00
3FFE00
3FFE00
ENDCHAR
STARTCHAR 0424
ENCODING 1060
SWIDTH 1044 0
DWIDTH 29 0
BBX 25 21 3 0
BITMAP
003E0000
003E0000
003E0000
1FFFFE00
1FFFFE00
1FFFFE00
F83E0F80
F83E0F80
F83E0F80
F83E0F80
F83E0F80
F83E0F80
F83E0F80
F83E0F80
F83E0F80
F83E0F80
1FFFFE00
1FFFFE00
1FFFFE00
003E0000
003E0000
ENDCHAR
STARTCHAR 0425
ENCODING 1061
SWIDTH 792 0
DWIDTH 22 0
BBX 18 21 3 0
BITMAP
F807C0
F807C0
F807C0
F807C0
F807C0
1F3E00
1F3E00
1F3E00
07F800
07F800
07F800
1F3E00
1F3E00
F807C0
F807C0
F807C0
F807C0
F807C0
F807C0
F807C0
F807C0
ENDCHAR
STARTCHAR 0426
ENCODING 1062
SWIDTH 864 0
DWIDTH 24 0
BBX 20 24 3 -3
BITMAP
F807C0
F807C0
F807C0
F807C0
F807C0
F807C0
F807C0
F807C0
F807C0
F807C0
F807C0
F807C0
F807C0
F807C0
F807C0
F807C0
F807C0
F807C0
FFFFF0
FFFFF0
FFFFF0
0001F0
0001F0
0001F0
ENDCHAR
STARTCHAR 0427
ENCODING 1063
SWIDTH 792 0
DWIDTH 22 0
BBX 18 21 3 0
BITMAP
F807C0
F807C0
F807C0
F807C0
F807C0
F807C0
F807C0
F807C0
F807C0
1FFFC0
1FFFC0
1FFFC0
0007C0
0007C0
0007C0
0007C0
0007C0
0007C0
0007C0
0007C0
0007C0
ENDCHAR
STARTCHAR 0428
ENCODING 1064
SWIDTH 972 0
DWIDTH 27 0
BBX 23 21 3 0
BITMAP
F87C3E
F87C3E
F87C3E
F87C3E
F87C3E
F87C3E
F87C3E
F87C3E
F87C3E
F87C3E
F87C3E
F87C3E
F87C3E
F87C3E
F87C3E
F87C3E
F87C3E
F87C3E
FFFFFE
FFFFFE
FFFFFE
ENDCHAR
STARTCHAR 0429
ENCODING 1065
SWIDTH 1044 0
DWIDTH 29 0
BBX 25 24 3 -3
BITMAP
F87C3E00
F87C3E00
F87C3E00
F87C3E00
F87C3E00
F87C3E00
F87C3E00
F87C3E00
F87C3E00
F87C3E00
F87C3E00
F87C3E00
F87C3E00
F87C3E00
F87C3E00
F87C3E00
F87C3E00
F87C3E00
FFFFFF80
FFFFFF80
FFFFFF80
00000F80
00000F80
00000F80
ENDCHAR
STARTCHAR 042A
ENCODING 1066
SWIDTH 936 0
DWIDTH 26 0
BBX 22 21 3 0
BITMAP
FF8000
FF8000
FF8000
0F8000
0F8000
0F8000
0F8000
0F8000
0FFFE0
0FFFE0
0FFFE0
0F807C
0F807C
0F807C
0F807C
0F807C
0F807C
0F807C
0FFFE0
0FFFE0
0FFFE0
ENDCHAR
STARTCHAR 042B
ENCODING 1067
SWIDTH 1044 0
DWIDTH 29 0
BBX 25 21 3 0
BITMAP
F8000F80
F8000F80
F8000F80
F8000F80
F8000F80
F8000F80
F8000F80
F8000F80
FFFE0F80
FFFE0F80
FFFE0F80
F807CF80
F807CF80
F807CF80
F807CF80
F807CF80
F807CF80
F807CF80
FFFE0F80
FFFE0F80
FFFE0F80
ENDCHAR
STARTCHAR 042C
ENCODING 1068
SWIDTH 792 0
DWIDTH 22 0
BBX 18 21 3 0
BITMAP
F80000
F80000
F80000
F80000
F80000
F80000
F80000
F80000
FFFE00
FFFE00
FFFE00
F807C0
F807C0
F807C0
F807C0
F807C0
F807C0
F807C0
FFFE00
FFFE00
FFFE00
ENDCHAR
STARTCHAR 042D
ENCODING 1069
SWIDTH 792 0
DWIDTH 22 0
BBX 18 21 3 0
BITMAP
1FF800
1FF800
1FF800
F83E00
F83E00
F83E00
0007C0
0007C0
0007C0
07FFC0
07FFC0
07FFC0
0007C0
0007C0
0007C0
0007C0
F83E00
F83E00
1FF800
1FF800
1FF800
ENDCHAR
STARTCHAR 042E
ENCODING 1070
SWIDTH 1116 0
DWIDTH 31 0
BBX 27 21 3 0
BITMAP
FC1FFF00
FC1FFF00
FC1FFF00
FC7C03E0
FC7C03E0
FC7C03E0
FC7C03E0
FC7C03E0
FC7C03E0
FFFC03E0
FFFC03E0
FFFC03E0
FC7C03E0
FC7C03E0
FC7C03E0
FC7C03E0
FC7C03E0
FC7C03E0
FC1FFF00
FC1FFF00
FC1FFF00
ENDCHAR
STARTCHAR 042F
ENCODING 1071
SWIDTH 792 0
DWIDTH 22 0
BBX 18 21 3 0
BITMAP
1FFFC0
1FFFC0
1FFFC0
F807C0
F807C0
F807C0
F807C0
F807C0
1FFFC0
1FFFC0
1FFFC0
F807C0
F807C0
F807C0
F807C0
F807C0
F807C0
F807C0
F807C0
F807C0
F807C0
ENDCHAR
STARTCHAR 0430
ENCODING 1072
SWIDTH 792 0
DWIDTH 22 0
BBX 18 13 3 0
BITMAP
3FFE00
3FFE00
3FFE00
0007C0
0007C0
3FFFC0
3FFFC0
3FFFC0
F807C0
F807C0
3FFFC0
3FFFC0
3FFFC0
ENDCHAR
STARTCHAR 0431
ENCODING 1073
SWIDTH 792 0
DWIDTH 22 0
BBX 18 21 3 0
BITMAP
3FFE00
3FFE00
FFFE00
F80000
F80000
F80000
F80000
F80000
F9FE00
F9FE00
F9FE00
FFC7C0
FFC7C0
FFC7C0
F807C0
F807C0
F807C0
F807C0
3FFE00
3FFE00
3FFE00
ENDCHAR
STARTCHAR 0432
ENCODING 1074
SWIDTH 792 0
DWIDTH 22 0
BBX 18 13 3 0
BITMAP
FFFE00
FFFE00
FFFFC0
F807C0
F807C0
FFFE00
FFFE00
FFFE00
F807C0
F807C0
FFFE00
FFFE00
FFFE00
ENDCHAR
STARTCHAR 0433
ENCODING 1075
SWIDTH 612 0
DWIDTH 17 0
BBX 13 13 3 0
BITMAP
FFF8
FFF8
FFF8
F800
F800
F800
F800
F800
F800
F800
F800
F800
F800
ENDCHAR
STARTCHAR 0434
ENCODING 1076
SWIDTH 864 0
DWIDTH 24 0
BBX 20 16 3 -3
BITMAP
07FFC0
07FFC0
07FFC0
1F07C0
1F07C0
1F07C0
1F07C0
1F07C0
1F07C0
1F07C0
FFFFF0
FFFFF0
FFFFF0
F801F0
F801F0
F801F0
ENDCHAR
STARTCHAR 0435
ENCODING 1077
SWIDTH 792 0
DWIDTH 22 0
BBX 18 13 3 0
BITMAP
3FFE00
3FFE00
3FFE00
F807C0
F807C0
FFFFC0
FFFFC0
FFFFC0
F80000
F80000
3FFE00
3FFE00
3FFE00
ENDCHAR
STARTCHAR 0436
ENCODING 1078
SWIDTH 864 0
DWIDTH 24 0
BBX 20 13 3 0
BITMAP
F8F9F0
F8F9F0
F8F9F0
F8F9F0
F8F9F0
1FFFC0
1FFFC0
1FFFC0
F8F9F0
F8F9F0
F8F9F0
F8F9F0
F8F9F0
ENDCHAR
STARTCHAR 0437
ENCODING 1079
SWIDTH 792 0
DWIDTH 22 0
BBX 18 13 3 0
BITMAP
3FFE00
3FFE00
FFFFC0
F807C0
F807C0
01FE00
01FE00
01FE00
F807C0
F807C0
3FFE00
3FFE00
3FFE00
ENDCHAR
STARTCHAR 0438
ENCODING 1080
SWIDTH 792 0
DWIDTH 22 0
BBX 18 13 3 0
BITMAP
F807C0
F83FC0
F83FC0
F83FC0
F8FFC0
F8FFC0
F8C7C0
FFC7C0
FFC7C0
FF07C0
FF07C0
FF07C0
F807C0
ENDCHAR
STARTCHAR 0439
ENCODING 1081
SWIDTH 792 0
DWIDTH 22 0
BBX 18 21 3 0
BITMAP
7C1F00
7C1F00
7C1F00
0FFC00
0FFC00
0FFC00
000000
000000
F807C0
F83FC0
F83FC0
F83FC0
F9FFC0
F9FFC0
F9C7C0
FFC7C0
FFC7C0
FE07C0
FE07C0
FE07C0
F807C0
ENDCHAR
STARTCHAR 043A
ENCODING 1082
SWIDTH 684 0
DWIDTH 19 0
BBX 15 13 3 0
BITMAP
F83E
F83E
F83E
F8F8
F8F8
FFC0
FFC0
FFC0
F8F8
F8F8
F83E
F83E
F83E
ENDCHAR
STARTCHAR 043B
ENCODING 1083
SWIDTH 792 0
DWIDTH 22 0
BBX 18 13 3 0
BITMAP
07FFC0
07FFC0
07FFC0
1F07C0
1F07C0
1F07C0
1F07C0
1F07C0
1F07C0
1F07C0
F807C0
F807C0
F807C0
ENDCHAR
STARTCHAR 043C
ENCODING 1084
SWIDTH 792 0
DWIDTH 22 0
BBX 18 13 3 0
BITMAP
F807C0
F807C0
F807C0
FE3FC0
FE3FC0
FFFFC0
FFFFC0
FFFFC0
F9C7C0
F9C7C0
F807C0
F807C0
F807C0
ENDCHAR
STARTCHAR 043D
ENCODING 1085
SWIDTH 792 0
DWIDTH 22 0
BBX 18 13 3 0
BITMAP
F807C0
F807C0
F807C0
F807C0
F807C0
FFFFC0
FFFFC0
FFFFC0
F807C0
F807C0
F807C0
F807C0
F807C0
ENDCHAR
STARTCHAR 043E
ENCODING 1086
SWIDTH 792 0
DWIDTH 22 0
BBX 18 13 3 0
BITMAP
3FFE00
3FFE00
3FFE00
F807C0
F807C0
F807C0
F807C0
F807C0
F807C0
F807C0
3FFE00
3FFE00
3FFE00
ENDCHAR
STARTCHAR 043F
ENCODING 1087
SWIDTH 792 0
DWIDTH 22 0
BBX 18 13 3 0
BITMAP
FFFFC0
FFFFC0
FFFFC0
F807C0
F807C0
F807C0
F807C0
F807C0
F807C0
F807C0
F807C0
F807C0
F807C0
ENDCHAR
STARTCHAR 0440
ENCODING 1088
SWIDTH 792 0
DWIDTH 22 0
BBX 18 21 3 -8
BITMAP
FFFE00
FFFE00
FFFE00
F807C0
F807C0
F807C0
F807C0
F807C0
F807C0
F807C0
FFFE00
FFFE00
FFFE00
F80000
F80000
F80000
F80000
F80000
F80000
F80000
F80000
ENDCHAR
STARTCHAR 0441
ENCODING 1089
SWIDTH 792 0
DWIDTH 22 0
BBX 18 13 3 0
BITMAP
3FFE00
3FFE00
FFFFC0
F807C0
F807C0
F80000
F80000
F80000
F807C0
F807C0
3FFE00
3FFE00
3FFE00
ENDCHAR
STARTCHAR 0442
ENCODING 1090
SWIDTH 684 0
DWIDTH 19 0
BBX 15 13 3 0
BITMAP
FFFE
FFFE
FFFE
07C0
07C0
07C0
07C0
07C0
07C0
07C0
07C0
07C0
07C0
ENDCHAR
STARTCHAR 0443
ENCODING 1091
SWIDTH 792 0
DWIDTH 22 0
BBX 18 21 3 -8
BITMAP
F807C0
F807C0
F807C0
F807C0
F807C0
F807C0
F807C0
F807C0
F807C0
F807C0
3FFFC0
3FFFC0
3FFFC0
0007C0
0007C0
0007C0
0007C0
0007C0
3FFE00
3FFE00
3FFE00
ENDCHAR
STARTCHAR 0444
ENCODING 1092
SWIDTH 972 0
DWIDTH 27 0
BBX 23 29 3 -8
BITMAP
007C00
007C00
007C00
007C00
007C00
007C00
007C00
007C00
3FFFF0
3FFFF0
3FFFF0
F87C3E
F87C3E
F87C3E
F87C3E
F87C3E
F87C3E
F87C3E
3FFFF0
3FFFF0
3FFFF0
007C00
007C00
007C00
007C00
007C00
007C00
007C00
007C00
ENDCHAR
STARTCHAR 0445
ENCODING 1093
SWIDTH 792 0
DWIDTH 22 0
BBX 18 13 3 0
BITMAP
F807C0
F807C0
F807C0
1F3E00
1FFE00
07F800
07F800
07F800
1FFE00
1F3E00
F807C0
F807C0
F807C0
ENDCHAR
STARTCHAR 0446
ENCODING 1094
SWIDTH 864 0
DWIDTH 24 0
BBX 20 16 3 -3
BITMAP
F807C0
F807C0
F807C0
F807C0
F807C0
F807C0
F807C0
F807C0
F807C0
F807C0
FFFFF0
FFFFF0
FFFFF0
0001F0
0001F0
0001F0
ENDCHAR
STARTCHAR 0447
ENCODING 1095
SWIDTH 792 0
DWIDTH 22 0
BBX 18 13 3 0
BITMAP
F807C0
F807C0
F807C0
F807C0
F807C0
F807C0
FFFFC0
1FFFC0
1FFFC0
0007C0
0007C0
0007C0
0007C0
ENDCHAR
STARTCHAR 0448
ENCODING 1096
SWIDTH 900 0
DWIDTH 25 0
BBX 21 13 3 0
BITMAP
F8F8F8
F8F8F8
F8F8F8
F8F8F8
F8F8F8
F8F8F8
F8F8F8
F8F8F8
F8F8F8
F8F8F8
FFFFF8
FFFFF8
FFFFF8
ENDCHAR
STARTCHAR 0449
ENCODING 1097
SWIDTH 972 0
DWIDTH 27 0
BBX 23 16 3 -3
BITMAP
F8F9F0
F8F9F0
F8F9F0
F8F9F0
F8F9F0
F8F9F0
F8F9F0
F8F9F0
F8F9F0
F8F9F0
FFFFFE
FFFFFE
FFFFFE
00003E
00003E
00003E
ENDCHAR
STARTCHAR 044A
ENCODING 1098
SWIDTH 936 0
DWIDTH 26 0
BBX 22 13 3 0
BITMAP
FF8000
FF8000
FF8000
0F8000
0F8000
0FFFE0
0FFFE0
0FFFE0
0F807C
0F807C
0FFFE0
0FFFE0
0FFFE0
ENDCHAR
STARTCHAR 044B
ENCODING 1099
SWIDTH 972 0
DWIDTH 27 0
BBX 23 13 3 0
BITMAP
F8003E
F8003E
F8003E
F8003E
F8003E
FFF83E
FFF83E
FFF83E
F83E3E
F83E3E
FFF83E
FFF83E
FFF83E
ENDCHAR
STARTCHAR 044C
ENCODING 1100
SWIDTH 792 0
DWIDTH 22 0
BBX 18 13 3 0
BITMAP
F80000
F80000
F80000
F80000
F80000
FFFE00
FFFE00
FFFE00
F807C0
F807C0
FFFE00
FFFE00
FFFE00
ENDCHAR
STARTCHAR 044D
ENCODING 1101
SWIDTH 792 0
DWIDTH 22 0
BBX 18 13 3 0
BITMAP
3FFE00
3FFE00
FFFFC0
F807C0
F807C0
00FFC0
00FFC0
00FFC0
F807C0
F807C0
3FFE00
3FFE00
3FFE00
ENDCHAR
STARTCHAR 044E
ENCODING 1102
SWIDTH 1044 0
DWIDTH 29 0
BBX 25 13 3 0
BITMAP
F83FFE00
F83FFE00
F83FFE00
F8F80F80
F8F80F80
FFF80F80
FFF80F80
FFF80F80
F8F80F80
F8F80F80
F83FFE00
F83FFE00
F83FFE00
ENDCHAR
STARTCHAR 044F
ENCODING 1103
SWIDTH 792 0
DWIDTH 22 0
BBX 18 13 3 0
BITMAP
1FFFC0
1FFFC0
FFFFC0
F807C0
F807C0
1FFFC0
1FFFC0
1FFFC0
F807C0
F807C0
F807C0
F807C0
F807C0
ENDCHAR
STARTCHAR 0450
ENCODING 1104
SWIDTH 792 0
DWIDTH 22 0
BBX 18 21 3 0
BITMAP
0F8000
0F8000
0F8000
03E000
03E000
03E000
000000
000000
3FFE00
3FFE00
3FFE00
F807C0
F807C0
FFFFC0
FFFFC0
FFFFC0
F80000
F80000
3FFE00
3FFE00
3FFE00
ENDCHAR
STARTCHAR 0451
ENCODING 1105
SWIDTH 792 0
DWIDTH 22 0
BBX 18 21 3 0
BITMAP
1F3E00
1F3E00
1F3E00
1F3E00
1F3E00
000000
000000
000000
1FFE00
1FFE00
1FFE00
F807C0
F807C0
FFFFC0
FFFFC0
FFFFC0
F80000
F80000
1FFE00
1FFE00
1FFE00
ENDCHAR
STARTCHAR 0453
ENCODING 1107
SWIDTH 612 0
DWIDTH 17 0
BBX 13 21 3 0
BITMAP
03E0
03E0
03E0
0F80
0F80
0F80
0000
0000
FFF8
FFF8
FFF8
F800
F800
F800
F800
F800
F800
F800
F800
F800
F800
ENDCHAR
STARTCHAR 0454
ENCODING 1108
SWIDTH 792 0
DWIDTH 22 0
BBX 18 13 3 0
BITMAP
3FFE00
3FFE00
FFFFC0
F807C0
F807C0
FFC000
FFC000
FFC000
F807C0
F807C0
3FFE00
3FFE00
3FFE00
ENDCHAR
STARTCHAR 0456
ENCODING 1110
SWIDTH 324 0
DWIDTH 9 0
BBX 5 21 3 0
BITMAP
F8
F8
F8
F8
F8
00
00
00
F8
F8
F8
F8
F8
F8
F8
F8
F8
F8
F8
F8
F8
ENDCHAR
STARTCHAR 0457
ENCODING 1111
SWIDTH 468 0
DWIDTH 13 0
BBX 13 21 -1 0
BITMAP
F8F8
F8F8
F8F8
F8F8
F8F8
0000
0000
0000
0F80
0F80
0F80
0F80
0F80
0F80
0F80
0F80
0F80
0F80
0F80
0F80
0F80
ENDCHAR
STARTCHAR 0459
ENCODING 1113
SWIDTH 1152 0
DWIDTH 32 0
BBX 28 13 3 0
BITMAP
1FFFC000
1FFFC000
1FFFC000
1F07C000
1F07C000
1F07FF80
1F07FF80
1F07FF80
1F07C1F0
1F07C1F0
F807FF80
F807FF80
F807FF80
ENDCHAR
STARTCHAR 045A
ENCODING 1114
SWIDTH 1152 0
DWIDTH 32 0
BBX 28 13 3 0
BITMAP
F807C000
F807C000
F807C000
F807C000
F807C000
FFFFFF80
FFFFFF80
FFFFFF80
F807C1F0
F807C1F0
F807FF80
F807FF80
F807FF80
ENDCHAR
STARTCHAR 045B
ENCODING 1115
SWIDTH 756 0
DWIDTH 21 0
BBX 20 21 0 0
BITMAP
1F0000
1F0000
1F0000
FFF800
FFF800
FFF800
1F0000
1F0000
1F3FC0
1F3FC0
1F3FC0
1FF9F0
1FF9F0
1FF9F0
1F01F0
1F01F0
1F01F0
1F01F0
1F01F0
1F01F0
1F01F0
ENDCHAR
STARTCHAR 045C
ENCODING 1116
SWIDTH 684 0
DWIDTH 19 0
BBX 15 21 3 0
BITMAP
00F8
00F8
00F8
07C0
07C0
07C0
0000
0000
F83E
F83E
F83E
F8F8
F8F8
FFC0
FFC0
FFC0
F8F8
F8F8
F83E
F83E
F83E
ENDCHAR
STARTCHAR 045D
ENCODING 1117
SWIDTH 756 0
DWIDTH 21 0
BBX 17 21 3 0
BITMAP
0F8000
0F8000
0F8000
07C000
07C000
07C000
000000
000000
F80780
F83F80
F83F80
F83F80
F9FF80
F9FF80
F9C780
FFC780
FFC780
FE0780
FE0780
FE0780
F80780
ENDCHAR
STARTCHAR 045E
ENCODING 1118
SWIDTH 792 0
DWIDTH 22 0
BBX 18 29 3 -8
BITMAP
7C1F00
7C1F00
7C1F00
0FFC00
0FFC00
0FFC00
000000
000000
F807C0
F807C0
F807C0
F807C0
F807C0
F807C0
F807C0
F807C0
F807C0
F807C0
3FFFC0
3FFFC0
3FFFC0
0007C0
0007C0
0007C0
0007C0
0007C0
3FFE00
3FFE00
3FFE00
ENDCHAR
STARTCHAR 0490
ENCODING 1168
SWIDTH 684 0
DWIDTH 19 0
BBX 15 25 3 0
BITMAP
003E
003E
003E
003E
FFFE
FFFE
FFFE
F800
F800
F800
F800
F800
F800
F800
F800
F800
F800
F800
F800
F800
F800
F800
F800
F800
F800
ENDCHAR
STARTCHAR 0491
ENCODING 1169
SWIDTH 612 0
DWIDTH 17 0
BBX 13 17 3 0
BITMAP
00F8
00F8
00F8
00F8
FFF8
FFF8
FFF8
F800
F800
F800
F800
F800
F800
F800
F800
F800
F800
ENDCHAR
STARTCHAR 0492
ENCODING 1170
SWIDTH 684 0
DWIDTH 19 0
BBX 18 21 0 0
BITMAP
1FFFC0
1FFFC0
1FFFC0
1F0000
1F0000
1F0000
1F0000
1F0000
FFF800
FFF800
FFF800
1F0000
1F0000
1F0000
1F0000
1F0000
1F0000
1F0000
1F0000
1F0000
1F0000
ENDCHAR
STARTCHAR 0493
ENCODING 1171
SWIDTH 576 0
DWIDTH 16 0
BBX 15 13 0 0
BITMAP
1FFE
1FFE
1FFE
1F00
1F00
FFF8
FFF8
FFF8
1F00
1F00
1F00
1F00
1F00
ENDCHAR
STARTCHAR 0496
ENCODING 1174
SWIDTH 972 0
DWIDTH 27 0
BBX 23 25 3 -4
BITMAP
F8F9F0
F8F9F0
F8F9F0
F8F9F0
F8F9F0
F8F9F0
F8F9F0
F8F9F0
F8F9F0
1FFFC0
1FFFC0
1FFFC0
F8F9F0
F8F9F0
F8F9F0
F8F9F0
F8F9F0
F8F9F0
F8F9F0
F8F9FE
F8F9FE
00003E
00003E
00003E
00003E
ENDCHAR
STARTCHAR 0497
ENCODING 1175
SWIDTH 972 0
DWIDTH 27 0
BBX 23 17 3 -4
BITMAP
F8F9F0
F8F9F0
F8F9F0
F8F9F0
F8F9F0
1FFFC0
1FFFC0
1FFFC0
F8F9F0
F8F9F0
F8F9F0
F8F9FE
F8F9FE
00003E
00003E
00003E
00003E
ENDCHAR
STARTCHAR 049A
ENCODING 1178
SWIDTH 864 0
DWIDTH 24 0
BBX 20 25 3 -4
BITMAP
F807C0
F807C0
F807C0
F83E00
F83E00
F8F800
F8F800
F8F800
FFC000
FFC000
FFC000
F8F800
F8F800
F83E00
F83E00
F83E00
F807C0
F807C0
F807C0
F807F0
F807F0
0001F0
0001F0
0001F0
0001F0
ENDCHAR
STARTCHAR 049B
ENCODING 1179
SWIDTH 828 0
DWIDTH 23 0
BBX 19 17 3 -4
BITMAP
F81F00
F81F00
F8FF00
F8F800
F8F800
FFC000
FFC000
FFC000
F8F800
F8F800
F83FE0
F83FE0
F83FE0
0003E0
0003E0
0003E0
0003E0
ENDCHAR
STARTCHAR 049C
ENCODING 1180
SWIDTH 864 0
DWIDTH 24 0
BBX 20 21 3 0
BITMAP
F801F0
F801F0
F801F0
FB87C0
FB87C0
FBBE00
FBBE00
FBBE00
FFF800
FFF800
FFF800
FBBE00
FBBE00
FB87C0
FB87C0
FB87C0
F801F0
F801F0
F801F0
F801F0
F801F0
ENDCHAR
STARTCHAR 049D
ENCODING 1181
SWIDTH 792 0
DWIDTH 22 0
BBX 18 13 3 0
BITMAP
F807C0
F807C0
F807C0
FBBE00
FBBE00
FFF800
FFF800
FFF800
FBBE00
FBBE00
F807C0
F807C0
F807C0
ENDCHAR
STARTCHAR 049E
ENCODING 1182
SWIDTH 756 0
DWIDTH 21 0
BBX 20 21 0 0
BITMAP
1F01F0
1F01F0
1F01F0
FFC7C0
FFC7C0
1F3E00
1F3E00
1F3E00
1FF800
1FF800
1FF800
1F3E00
1F3E00
1F07C0
1F07C0
1F07C0
1F01F0
1F01F0
1F01F0
1F01F0
1F01F0
ENDCHAR
STARTCHAR 049F
ENCODING 1183
SWIDTH 720 0
DWIDTH 20 0
BBX 19 21 0 0
BITMAP
1F0000
1F0000
1F0000
1F0000
FFC000
FFC000
FFC000
1F0000
1F03E0
1F03E0
1F3FE0
1F3E00
1F3E00
1FF800
1FF800
1FF800
1F3E00
1F3E00
1F07C0
1F07C0
1F07C0
ENDCHAR
STARTCHAR 04A0
ENCODING 1184
SWIDTH 936 0
DWIDTH 26 0
BBX 22 21 3 0
BITMAP
FF807C
FF807C
FF807C
0F83E0
0F83E0
0F8F80
0F8F80
0F8F80
0FFC00
0FFC00
0FFC00
0F8F80
0F8F80
0F83E0
0F83E0
0F83E0
0F807C
0F807C
0F807C
0F807C
0F807C
ENDCHAR
STARTCHAR 04A1
ENCODING 1185
SWIDTH 864 0
DWIDTH 24 0
BBX 20 13 3 0
BITMAP
FF83F0
FF83F0
FF83F0
0F8F80
0F8F80
0FFC00
0FFC00
0FFC00
0F8F80
0F8F80
0F83F0
0F83F0
0F83F0
ENDCHAR
STARTCHAR 04A2
ENCODING 1186
SWIDTH 864 0
DWIDTH 24 0
BBX 20 25 3 -4
BITMAP
F807C0
F807C0
F807C0
F807C0
F807C0
F807C0
F807C0
F807C0
FFFFC0
FFFFC0
FFFFC0
F807C0
F807C0
F807C0
F807C0
F807C0
F807C0
F807C0
F807C0
F807F0
F807F0
0001F0
0001F0
0001F0
0001F0
ENDCHAR
STARTCHAR 04A3
ENCODING 1187
SWIDTH 864 0
DWIDTH 24 0
BBX 20 17 3 -4
BITMAP
F807C0
F807C0
F807C0
F807C0
F807C0
FFFFC0
FFFFC0
FFFFC0
F807C0
F807C0
F807C0
F807F0
F807F0
0001F0
0001F0
0001F0
0001F0
ENDCHAR
STARTCHAR 04A4
ENCODING 1188
SWIDTH 936 0
DWIDTH 26 0
BBX 22 21 3 0
BITMAP
F807FC
F807FC
F807FC
F807C0
F807C0
F807C0
F807C0
F807C0
FFFFC0
FFFFC0
FFFFC0
F807C0
F807C0
F807C0
F807C0
F807C0
F807C0
F807C0
F807C0
F807C0
F807C0
ENDCHAR
STARTCHAR 04A5
ENCODING 1189
SWIDTH 972 0
DWIDTH 27 0
BBX 23 13 3 0
BITMAP
F807FE
F807FE
F807FE
F807C0
F807C0
FFFFC0
FFFFC0
FFFFC0
F807C0
F807C0
F807C0
F807C0
F807C0
ENDCHAR
STARTCHAR 04AC
ENCODING 1196
SWIDTH 792 0
DWIDTH 22 0
BBX 18 25 3 -4
BITMAP
FFFFC0
FFFFC0
FFFFC0
03E000
03E000
03E000
03E000
03E000
03E000
03E000
03E000
03E000
03E000
03E000
03E000
03E000
03E000
03E000
03E000
03FE00
03FE00
003E00
003E00
003E00
003E00
ENDCHAR
STARTCHAR 04AD
ENCODING 1197
SWIDTH 684 0
DWIDTH 19 0
BBX 15 17 3 -4
BITMAP
FFFE
FFFE
FFFE
07C0
07C0
07C0
07C0
07C0
07C0
07C0
07C0
07FC
07FC
007C
007C
007C
007C
ENDCHAR
STARTCHAR 2018
ENCODING 8216
SWIDTH 432 0
DWIDTH 12 0
BBX 8 8 3 13
BITMAP
1F
1F
1F
F8
F8
F8
F8
F8
ENDCHAR
STARTCHAR 2019
ENCODING 8217
SWIDTH 324 0
DWIDTH 9 0
BBX 8 8 0 13
BITMAP
1F
1F
1F
1F
1F
F8
F8
F8
ENDCHAR
STARTCHAR 201C
ENCODING 8220
SWIDTH 684 0
DWIDTH 19 0
BBX 15 8 3 13
BITMAP
1F3E
1F3E
1F3E
F8F8
F8F8
F8F8
F8F8
F8F8
ENDCHAR
STARTCHAR 201D
ENCODING 8221
SWIDTH 576 0
DWIDTH 16 0
BBX 15 8 0 13
BITMAP
1F3E
1F3E
1F3E
1F3E
1F3E
F8F8
F8F8
F8F8
ENDCHAR
STARTCHAR 20AC
ENCODING 8364
SWIDTH 828 0
DWIDTH 23 0
BBX 21 21 1 0
BITMAP
007FE0
007FE0
007FE0
03E0F8
03E0F8
03E0F8
0F8000
0F8000
7FFE00
FFFC00
FFFC00
0F8000
7FFE00
FFFC00
0F8000
0F8000
07E0F8
07E0F8
00FFE0
00FFE0
00FFE0
ENDCHAR
STARTCHAR 2122
ENCODING 8482
SWIDTH 972 0
DWIDTH 27 0
BBX 23 10 2 10
BITMAP
FFF80E
FFF80E
0E3F3E
0E3F3E
0E3F3E
0E39CE
0E39CE
0E380E
0E380E
0E380E
ENDCHAR
STARTCHAR FB00
ENCODING 64256
SWIDTH 972 0
DWIDTH 27 0
BBX 23 21 3 0
BITMAP
07F9FE
07F9FE
07F9FE
1F07C0
1F07C0
1F07C0
1F07C0
1F07C0
FFFFFE
FFFFFE
FFFFFE
1F07C0
1F07C0
1F07C0
1F07C0
1F07C0
1F07C0
1F07C0
1F07C0
1F07C0
1F07C0
ENDCHAR
STARTCHAR FB01
ENCODING 64257
SWIDTH 756 0
DWIDTH 21 0
BBX 17 21 3 0
BITMAP
0FF000
0FF000
0FF000
3E0000
3E0000
3E0000
3E0000
3E0000
FFFF80
FFFF80
FFFF80
3E0F80
3E0F80
3E0F80
3E0F80
3E0F80
3E0F80
3E0F80
3E0F80
3E0F80
3E0F80
ENDCHAR
STARTCHAR FB02
ENCODING 64258
SWIDTH 864 0
DWIDTH 24 0
BBX 20 21 3 0
BITMAP
07FF80
07FF80
07FF80
3E0F80
3E0F80
3E0F80
3E0F80
3E0F80
FFFF80
FFFF80
FFFF80
3E0F80
3E0F80
3E0F80
3E0F80
3E0F80
3E0F80
3E0F80
3E01F0
3E01F0
3E01F0
ENDCHAR
STARTCHAR FB03
ENCODING 64259
SWIDTH 1116 0
DWIDTH 31 0
BBX 27 21 3 0
BITMAP
0FF3FC00
0FF3FC00
0FF3FC00
3E0F8000
3E0F8000
3E0F8000
3E0F8000
3E0F8000
FFFFFFE0
FFFFFFE0
FFFFFFE0
3E0F83E0
3E0F83E0
3E0F83E0
3E0F83E0
3E0F83E0
3E0F83E0
3E0F83E0
3E0F83E0
3E0F83E0
3E0F83E0
ENDCHAR
STARTCHAR FB04
ENCODING 64260
SWIDTH 1224 0
DWIDTH 34 0
BBX 30 21 3 0
BITMAP
0FF1FFE0
0FF1FFE0
0FF1FFE0
3E0F83E0
3E0F83E0
3E0F83E0
3E0F83E0
3E0F83E0
FFFFFFE0
FFFFFFE0
FFFFFFE0
3E0F83E0
3E0F83E0
3E0F83E0
3E0F83E0
3E0F83E0
3E0F83E0
3E0F83E0
3E0F807C
3E0F807C
3E0F807C
ENDCHAR
ENDFONT
